<svg width="10" height="16" viewBox="0 0 10 16" fill="none" xmlns="http://www.w3.org/2000/svg">
<path d="M4.71023 15.4545V0.90909H5.64205V15.4545H4.71023ZM7.625 5.42045C7.56439 4.88258 7.31439 4.46591 6.875 4.17045C6.43561 3.87121 5.88258 3.72159 5.21591 3.72159C4.73864 3.72159 4.32576 3.79735 3.97727 3.94886C3.62879 4.09659 3.35795 4.30114 3.16477 4.5625C2.97538 4.82008 2.88068 5.11364 2.88068 5.44318C2.88068 5.7197 2.94508 5.95833 3.07386 6.15909C3.20644 6.35985 3.37879 6.52841 3.59091 6.66477C3.80682 6.79735 4.03788 6.90909 4.28409 7C4.5303 7.08712 4.76705 7.15909 4.99432 7.21591L6.13068 7.51136C6.50189 7.60227 6.88258 7.72538 7.27273 7.88068C7.66288 8.03598 8.02462 8.24053 8.35795 8.49432C8.69129 8.74811 8.96023 9.0625 9.16477 9.4375C9.37311 9.8125 9.47727 10.2614 9.47727 10.7841C9.47727 11.4432 9.30682 12.0284 8.96591 12.5398C8.62879 13.0511 8.13826 13.4545 7.49432 13.75C6.85417 14.0455 6.07955 14.1932 5.17045 14.1932C4.29924 14.1932 3.54545 14.0549 2.90909 13.7784C2.27273 13.5019 1.77462 13.1098 1.41477 12.6023C1.05492 12.0909 0.856061 11.4848 0.818182 10.7841H2.57955C2.61364 11.2045 2.75 11.5549 2.98864 11.8352C3.23106 12.1117 3.53977 12.3182 3.91477 12.4545C4.29356 12.5871 4.70833 12.6534 5.15909 12.6534C5.6553 12.6534 6.09659 12.5758 6.48295 12.4205C6.87311 12.2614 7.17992 12.0417 7.40341 11.7614C7.62689 11.4773 7.73864 11.1458 7.73864 10.767C7.73864 10.4223 7.64015 10.1402 7.44318 9.92045C7.25 9.70076 6.98674 9.51894 6.65341 9.375C6.32386 9.23106 5.95076 9.10417 5.53409 8.99432L4.15909 8.61932C3.22727 8.36553 2.48864 7.99242 1.94318 7.5C1.40152 7.00758 1.13068 6.35606 1.13068 5.54545C1.13068 4.875 1.3125 4.28977 1.67614 3.78977C2.03977 3.28977 2.5322 2.90151 3.15341 2.625C3.77462 2.3447 4.47538 2.20455 5.25568 2.20455C6.04356 2.20455 6.73864 2.3428 7.34091 2.61932C7.94697 2.89583 8.42424 3.27652 8.77273 3.76136C9.12121 4.24242 9.30303 4.79545 9.31818 5.42045H7.625Z" fill="#0EA5E9"/>
</svg>
