<svg width="18" height="12" viewBox="0 0 18 12" fill="none" xmlns="http://www.w3.org/2000/svg">
<path d="M1.66991 7.33671H2.66991C3.2222 7.33671 3.66991 7.78443 3.66991 8.33671V10.3367C3.66991 10.889 3.2222 11.3367 2.66991 11.3367H1.66991C1.11763 11.3367 0.669911 10.889 0.669911 10.3367V8.33671C0.669911 7.78443 1.11763 7.33671 1.66991 7.33671ZM6.3366 5.33671H7.3366C7.88888 5.33671 8.3366 5.78443 8.3366 6.33671V10.3367C8.3366 10.889 7.88888 11.3367 7.3366 11.3367H6.3366C5.78431 11.3367 5.3366 10.889 5.3366 10.3367V6.33671C5.3366 5.78443 5.78431 5.33671 6.3366 5.33671ZM11.0033 3.00338H12.0033C12.5555 3.00338 13.0033 3.45109 13.0033 4.00338V10.3367C13.0033 10.889 12.5555 11.3367 12.0033 11.3367H11.0033C10.451 11.3367 10.0033 10.889 10.0033 10.3367V4.00338C10.0033 3.45109 10.451 3.00338 11.0033 3.00338ZM15.6699 0.670043H16.6699C17.2222 0.670043 17.6699 1.11776 17.6699 1.67004V10.3367C17.6699 10.889 17.2222 11.3367 16.6699 11.3367H15.6699C15.1176 11.3367 14.6699 10.889 14.6699 10.3367V1.67004C14.6699 1.11776 15.1176 0.670043 15.6699 0.670043Z" fill="white"/>
</svg>
