<svg width="18" height="18" viewBox="0 0 18 18" fill="none" xmlns="http://www.w3.org/2000/svg">
<mask id="mask0_1_5298" style="mask-type:alpha" maskUnits="userSpaceOnUse" x="0" y="0" width="18" height="18">
<rect width="18" height="18" fill="white"/>
</mask>
<g mask="url(#mask0_1_5298)">
<path d="M16.5 8.31429V9.00429C16.4991 10.6216 15.9754 12.1953 15.007 13.4907C14.0386 14.786 12.6775 15.7337 11.1265 16.1922C9.57557 16.6508 7.91794 16.5957 6.40085 16.0352C4.88376 15.4747 3.58849 14.4389 2.70822 13.0821C1.82795 11.7253 1.40984 10.1203 1.51626 8.50653C1.62267 6.89272 2.24791 5.35654 3.29871 4.1271C4.34951 2.89766 5.76959 2.04083 7.34714 1.6844C8.92469 1.32798 10.5752 1.49105 12.0525 2.14929M16.5 3L9 10.5075L6.75 8.2575" stroke="#0EA5E9" stroke-width="2" stroke-linecap="round" stroke-linejoin="round"/>
</g>
</svg>
