<svg width="40" height="40" viewBox="0 0 40 40" fill="none" xmlns="http://www.w3.org/2000/svg">
<mask id="mask0_1_98" style="mask-type:alpha" maskUnits="userSpaceOnUse" x="0" y="0" width="40" height="40">
<path d="M40 0H0V40H40V0Z" fill="white"/>
</mask>
<g mask="url(#mask0_1_98)">
<path d="M15.0007 36.6666H25.0007C33.334 36.6666 36.6673 33.3333 36.6673 25V15C36.6673 6.66665 33.334 3.33331 25.0007 3.33331H15.0007C6.66732 3.33331 3.33398 6.66665 3.33398 15V25C3.33398 33.3333 6.66732 36.6666 15.0007 36.6666Z" stroke="url(#paint0_linear_1_98)" stroke-width="2" stroke-linecap="round" stroke-linejoin="round"/>
<path d="M19.9993 25.8333C23.221 25.8333 25.8327 23.2216 25.8327 20C25.8327 16.7783 23.221 14.1666 19.9993 14.1666C16.7777 14.1666 14.166 16.7783 14.166 20C14.166 23.2216 16.7777 25.8333 19.9993 25.8333Z" stroke="url(#paint1_linear_1_98)" stroke-width="2" stroke-linecap="round" stroke-linejoin="round"/>
<path d="M29.3942 11.6666H29.4134" stroke="url(#paint2_linear_1_98)" stroke-width="2" stroke-linecap="round" stroke-linejoin="round"/>
</g>
<defs>
<linearGradient id="paint0_linear_1_98" x1="37" y1="2.99998" x2="3.33398" y2="37" gradientUnits="userSpaceOnUse">
<stop stop-color="#6E3EFF"/>
<stop offset="0.479167" stop-color="#E0314D"/>
<stop offset="1" stop-color="#FED754"/>
</linearGradient>
<linearGradient id="paint1_linear_1_98" x1="25.9491" y1="14.05" x2="14.166" y2="25.95" gradientUnits="userSpaceOnUse">
<stop stop-color="#6E3EFF"/>
<stop offset="0.479167" stop-color="#E0314D"/>
<stop offset="1" stop-color="#FED754"/>
</linearGradient>
<linearGradient id="paint2_linear_1_98" x1="30.495" y1="10.8166" x2="28.8668" y2="12.9276" gradientUnits="userSpaceOnUse">
<stop stop-color="#6E3EFF"/>
<stop offset="0.479167" stop-color="#E0314D"/>
<stop offset="1" stop-color="#FED754"/>
</linearGradient>
</defs>
</svg>
