<svg width="24" height="24" viewBox="0 0 24 24" fill="none" xmlns="http://www.w3.org/2000/svg">
<mask id="mask0_1_5080" style="mask-type:alpha" maskUnits="userSpaceOnUse" x="0" y="0" width="24" height="24">
<rect width="24" height="24" fill="white"/>
</mask>
<g mask="url(#mask0_1_5080)">
<path d="M10.9525 6.2436C11.2911 6.19353 11.6405 6.16667 12.0003 6.16667C16.2545 6.16667 19.0461 9.9207 19.9839 11.4057C20.0974 11.5854 20.1542 11.6753 20.1859 11.8139C20.2098 11.918 20.2098 12.0822 20.1859 12.1863C20.1541 12.3249 20.097 12.4154 19.9827 12.5963C19.7328 12.9918 19.3518 13.5476 18.8471 14.1504M7.6036 7.59586C5.80187 8.81808 4.57871 10.5161 4.01759 11.4044C3.90357 11.5849 3.84656 11.6751 3.81478 11.8137C3.79091 11.9178 3.7909 12.082 3.81476 12.1861C3.84652 12.3247 3.90328 12.4146 4.01678 12.5943C4.95462 14.0793 7.74618 17.8333 12.0003 17.8333C13.7157 17.8333 15.1932 17.223 16.4073 16.3972M4.50035 4.5L19.5003 19.5M10.2326 10.2322C9.78017 10.6846 9.50035 11.3096 9.50035 12C9.50035 13.3807 10.6196 14.5 12.0003 14.5C12.6907 14.5 13.3157 14.2202 13.7681 13.7678" stroke="#666666" stroke-width="2" stroke-linecap="round" stroke-linejoin="round"/>
</g>
</svg>
