<svg width="345" height="110" viewBox="0 0 345 110" fill="none" xmlns="http://www.w3.org/2000/svg">
<path d="M73.5 103.001C57.5 106.6 17.8333 109.167 0 110H345C326.5 110 299.5 101.5 290 96.5013C281.409 91.9807 274 58.5051 261 59.505C248 60.5049 239.511 81.5028 228 81.5028C215.5 81.5028 212.5 0.0110013 198 0.0109863C183.964 0.0109719 175.5 66.5043 169 66.5043C162.5 66.5043 159 30.008 152.5 30.008C146 30.008 139.5 84.5025 130.5 84.5025C121.5 84.5025 116 55.5054 106.5 55.5054C97.8687 55.5054 93.5 98.5011 73.5 103.001Z" fill="#F6F8FA"/>
</svg>
