<svg width="50" height="22" viewBox="0 0 50 22" fill="none" xmlns="http://www.w3.org/2000/svg">
<path fill-rule="evenodd" clip-rule="evenodd" d="M23.0603 16.703V10.7114H26.1786C27.4564 10.7114 28.535 10.2868 29.4142 9.44938L29.6252 9.23708C31.2313 7.5033 31.1258 4.80237 29.4142 3.19832C28.5584 2.34912 27.3861 1.88914 26.1786 1.91273H21.1729V16.703H23.0603ZM23.0605 8.89493V3.72896H26.2262C26.9063 3.72896 27.5511 3.98844 28.0319 4.46021C29.0519 5.45095 29.0754 7.10217 28.0905 8.12829C27.6098 8.63545 26.9297 8.91852 26.2262 8.89493H23.0605ZM38.4293 7.37351C37.6204 6.63046 36.5185 6.25304 35.1234 6.25304C33.3298 6.25304 31.9816 6.91353 31.0907 8.22271L32.7553 9.27242C33.3649 8.37604 34.1973 7.92785 35.2524 7.92785C35.9206 7.92785 36.5654 8.17554 37.0695 8.62373C37.5618 9.04833 37.8432 9.66164 37.8432 10.3103V10.7467C37.1163 10.3457 36.2019 10.1334 35.0765 10.1334C33.7635 10.1334 32.7085 10.4401 31.923 11.0652C31.1376 11.6903 30.739 12.5159 30.739 13.5656C30.7155 14.521 31.1258 15.4291 31.8527 16.0424C32.5912 16.7029 33.5291 17.0332 34.631 17.0332C35.9323 17.0332 36.9639 16.4552 37.7494 15.2994H37.8315V16.7029H39.6368V10.4637C39.6368 9.15448 39.2382 8.11656 38.4293 7.37351ZM33.3066 14.8394C32.9197 14.5564 32.6852 14.0964 32.6852 13.601C32.6852 13.0467 32.9432 12.5867 33.4473 12.2211C33.9632 11.8554 34.6081 11.6667 35.3702 11.6667C36.4255 11.6549 37.2462 11.8908 37.8325 12.3626C37.8325 13.1646 37.5159 13.8605 36.8945 14.4502C36.3317 15.0164 35.5696 15.3348 34.7723 15.3348C34.2446 15.3466 33.7287 15.1697 33.3066 14.8394ZM43.693 21.1494L50.0001 6.58327H47.9485L45.0295 13.8486H44.9943L42.0049 6.58327H39.9534L44.0916 16.0542L41.747 21.1494H43.693Z" fill="#3C4043"/>
<path d="M16.5442 9.41404C16.5442 8.83611 16.4973 8.25818 16.4035 7.69205H8.44353V10.9591H13.0038C12.8163 12.0088 12.2066 12.9524 11.3157 13.5421V15.6651H14.0355C15.6298 14.1908 16.5442 12.0088 16.5442 9.41404Z" fill="#4285F4"/>
<path d="M8.44389 17.7173C10.7182 17.7173 12.6408 16.9625 14.0358 15.6651L11.3161 13.5421C10.5541 14.0611 9.58103 14.3559 8.44389 14.3559C6.23995 14.3559 4.37597 12.858 3.70775 10.853H0.90593V13.0467C2.33615 15.9128 5.25521 17.7173 8.44389 17.7173Z" fill="#25D366"/>
<path d="M3.70806 10.853C3.35631 9.80331 3.35631 8.65924 3.70806 7.59774V5.41577H0.905785C-0.301888 7.81004 -0.301888 10.6407 0.905785 13.035L3.70806 10.853Z" fill="#FBBC04"/>
<path d="M8.44389 4.09475C9.65137 4.07116 10.812 4.53114 11.6795 5.36855L14.0944 2.93889C12.5587 1.49997 10.5423 0.709743 8.44389 0.733332C5.25521 0.733332 2.33615 2.54968 0.90593 5.41573L3.70775 7.60949C4.37597 5.59264 6.23995 4.09475 8.44389 4.09475Z" fill="#EA4335"/>
</svg>
