<svg width="30" height="30" viewBox="0 0 30 30" fill="none" xmlns="http://www.w3.org/2000/svg">
<path d="M15.0001 28.3333C22.3639 28.3333 28.3334 22.3638 28.3334 15C28.3334 7.63619 22.3639 1.66666 15.0001 1.66666C7.63628 1.66666 1.66675 7.63619 1.66675 15C1.66675 22.3638 7.63628 28.3333 15.0001 28.3333Z" stroke="white" stroke-width="2" stroke-linecap="round" stroke-linejoin="round"/>
<path d="M11.6667 10.9538C11.6667 10.3174 11.6667 9.9992 11.7997 9.82156C11.9156 9.66676 12.093 9.5699 12.2859 9.55613C12.5073 9.54032 12.7749 9.71238 13.3102 10.0565L19.6043 14.1027C20.0689 14.4013 20.3011 14.5507 20.3813 14.7405C20.4514 14.9064 20.4514 15.0936 20.3813 15.2595C20.3011 15.4493 20.0689 15.5986 19.6043 15.8972L13.3102 19.9435C12.7749 20.2876 12.5073 20.4597 12.2859 20.4439C12.093 20.4301 11.9156 20.3332 11.7997 20.1784C11.6667 20.0008 11.6667 19.6826 11.6667 19.0462V10.9538Z" stroke="white" stroke-width="2" stroke-linecap="round" stroke-linejoin="round"/>
</svg>
