<svg width="42" height="27" viewBox="0 0 42 27" fill="none" xmlns="http://www.w3.org/2000/svg">
<path fill-rule="evenodd" clip-rule="evenodd" d="M37.9643 21.449C33.3658 24.8208 26.6997 26.6136 20.9588 26.6136C12.9131 26.6136 5.66811 23.6585 0.186026 18.7403C-0.244327 18.354 0.139058 17.8265 0.656793 18.1261C6.57142 21.5456 13.8863 23.6053 21.4415 23.6053C26.5381 23.6053 32.1403 22.5549 37.2958 20.3822C38.0724 20.0534 38.7245 20.8901 37.9643 21.449ZM39.8768 19.2786C40.4655 20.0274 39.2225 23.1105 38.6677 24.4876C38.4995 24.9044 38.8599 25.0726 39.24 24.7568C41.7064 22.7068 42.3442 18.4104 41.8396 17.7897C41.3383 17.1743 37.026 16.6447 34.3936 18.4809C33.9884 18.7631 34.0583 19.1538 34.5072 19.0995C35.9894 18.9237 39.2892 18.5298 39.8768 19.2786Z" fill="#FF9900"/>
<path fill-rule="evenodd" clip-rule="evenodd" d="M33.2195 13.758L38.0058 1.65457C38.1063 1.40931 38.1577 1.23676 38.1577 1.13583C38.1577 0.963282 38.0561 0.876465 37.8529 0.876465H36.635C36.4024 0.876465 36.244 0.913362 36.1555 0.984987C36.0682 1.0577 35.9819 1.21614 35.8945 1.4614L32.9574 9.84689L29.9121 1.4614C29.8248 1.21614 29.7385 1.0577 29.6511 0.984987C29.5637 0.913362 29.4042 0.876465 29.1716 0.876465H27.8663C27.6632 0.876465 27.5616 0.963282 27.5616 1.13583C27.5616 1.23676 27.6118 1.40931 27.7134 1.65457L31.9121 11.9424L31.4992 13.045C31.2524 13.7374 30.9771 14.2127 30.6724 14.4721C30.3676 14.7315 29.9394 14.8606 29.3889 14.8606C29.1421 14.8606 28.9466 14.8454 28.8024 14.8172C28.6571 14.789 28.5479 14.7738 28.4758 14.7738C28.2585 14.7738 28.1492 14.9105 28.1492 15.184V15.7461C28.1492 15.948 28.1853 16.0956 28.2584 16.1889C28.3305 16.2822 28.4463 16.3517 28.6069 16.394C28.9684 16.4939 29.3824 16.546 29.8466 16.546C30.6735 16.546 31.3441 16.33 31.8586 15.897C32.3752 15.4662 32.8285 14.7521 33.2195 13.758Z" fill="#232F3E"/>
<path fill-rule="evenodd" clip-rule="evenodd" d="M15.3522 3.85111C15.1413 3.15223 14.841 2.55753 14.4489 2.06809C14.0578 1.57866 13.5794 1.20317 13.0136 0.943807C12.4489 0.684439 11.8176 0.555298 11.1207 0.555298C10.4686 0.555298 9.82966 0.676842 9.20707 0.922102C8.58338 1.16736 7.99574 1.52766 7.44415 2.00298L7.33601 1.31061C7.29232 1.02303 7.12521 0.878693 6.83466 0.878693H5.87784C5.58839 0.878693 5.44312 1.02303 5.44312 1.31061V15.8569C5.44312 16.1456 5.58839 16.2888 5.87784 16.2888H7.16125C7.45179 16.2888 7.59597 16.1445 7.59597 15.8569V10.7998C8.5386 11.6495 9.66254 12.0749 10.9678 12.0749C11.6778 12.0749 12.3233 11.9338 12.9033 11.6538C13.4833 11.3728 13.9759 10.9799 14.3822 10.4753C14.7885 9.97175 15.1042 9.35969 15.3281 8.63802C15.5531 7.91743 15.6657 7.11003 15.6657 6.21689C15.6678 5.33895 15.5619 4.54999 15.3522 3.85111ZM10.4686 10.3451C9.48123 10.3451 8.5244 9.99997 7.59706 9.3076V3.27811C8.5102 2.61505 9.48232 2.28405 10.5123 2.28405C12.485 2.28405 13.4713 3.6319 13.4713 6.32541C13.4702 9.00591 12.4697 10.3451 10.4686 10.3451Z" fill="#232F3E"/>
<path fill-rule="evenodd" clip-rule="evenodd" d="M25.1616 1.4039C24.5084 0.842839 23.4937 0.561768 22.1164 0.561768C21.4348 0.561768 20.7532 0.623625 20.0716 0.74517C19.389 0.867799 18.8166 1.0295 18.3524 1.23135C18.1787 1.30406 18.0619 1.37894 18.004 1.45816C17.9461 1.53738 17.9166 1.67846 17.9166 1.87922V2.46199C17.9166 2.72135 18.0105 2.85158 18.1995 2.85158C18.2574 2.85158 18.3196 2.84073 18.3852 2.81902C18.4507 2.79732 18.5053 2.77996 18.5479 2.76476C19.6653 2.43377 20.7303 2.26773 21.7461 2.26773C22.6155 2.26773 23.225 2.42617 23.5734 2.74414C23.9219 3.06103 24.0955 3.60798 24.0955 4.38608V5.81206C23.0808 5.5668 22.1666 5.44526 21.354 5.44526C20.0782 5.44526 19.0635 5.75888 18.3087 6.38506C17.555 7.01123 17.1771 7.85119 17.1771 8.90277C17.1771 9.8838 17.4819 10.6641 18.0914 11.2479C18.6997 11.8318 19.5266 12.1226 20.5708 12.1226C21.1945 12.1226 21.8214 12 22.4528 11.7558C23.0841 11.5116 23.6597 11.1644 24.1818 10.7183L24.2911 11.4313C24.3347 11.7048 24.4942 11.8415 24.7706 11.8415H25.7055C25.995 11.8415 26.1414 11.6972 26.1414 11.4096V4.01928C26.1403 2.83747 25.8137 1.96604 25.1616 1.4039ZM24.0955 9.40197C23.6171 9.76226 23.1169 10.0357 22.5948 10.2235C22.0727 10.4112 21.5724 10.5045 21.094 10.5045C20.5282 10.5045 20.0935 10.357 19.7887 10.0618C19.484 9.7666 19.3322 9.34554 19.3322 8.7975C19.3322 7.54407 20.1514 6.91681 21.7898 6.91681C22.1666 6.91681 22.5544 6.94286 22.953 6.99278C23.3517 7.04378 23.7329 7.11215 24.0955 7.19789V9.40197Z" fill="#232F3E"/>
</svg>
