<svg width="64" height="98" viewBox="0 0 64 98" fill="none" xmlns="http://www.w3.org/2000/svg">
<g filter="url(#filter0_d_429_495)">
<circle cx="32" cy="28" r="28" fill="#0EA5E9"/>
</g>
<mask id="mask0_429_495" style="mask-type:alpha" maskUnits="userSpaceOnUse" x="20" y="74" width="24" height="24">
<rect x="20" y="74" width="24" height="24" fill="white"/>
</mask>
<g mask="url(#mask0_429_495)">
</g>
<g clip-path="url(#clip0_429_495)">
<path d="M20.625 15.75C20.3929 15.75 20.1704 15.8422 20.0063 16.0063C19.8422 16.1704 19.75 16.3929 19.75 16.625V21.875C19.75 22.1071 19.6578 22.3296 19.4937 22.4937C19.3296 22.6578 19.1071 22.75 18.875 22.75C18.6429 22.75 18.4204 22.6578 18.2563 22.4937C18.0922 22.3296 18 22.1071 18 21.875V16.625C18 15.9288 18.2766 15.2611 18.7688 14.7688C19.2611 14.2766 19.9288 14 20.625 14H25.875C26.1071 14 26.3296 14.0922 26.4937 14.2563C26.6578 14.4204 26.75 14.6429 26.75 14.875C26.75 15.1071 26.6578 15.3296 26.4937 15.4937C26.3296 15.6578 26.1071 15.75 25.875 15.75H20.625ZM37.25 14.875C37.25 14.6429 37.3422 14.4204 37.5063 14.2563C37.6704 14.0922 37.8929 14 38.125 14H43.375C44.0712 14 44.7389 14.2766 45.2312 14.7688C45.7234 15.2611 46 15.9288 46 16.625V21.875C46 22.1071 45.9078 22.3296 45.7437 22.4937C45.5796 22.6578 45.3571 22.75 45.125 22.75C44.8929 22.75 44.6704 22.6578 44.5063 22.4937C44.3422 22.3296 44.25 22.1071 44.25 21.875V16.625C44.25 16.3929 44.1578 16.1704 43.9937 16.0063C43.8296 15.8422 43.6071 15.75 43.375 15.75H38.125C37.8929 15.75 37.6704 15.6578 37.5063 15.4937C37.3422 15.3296 37.25 15.1071 37.25 14.875ZM18.875 33.25C19.1071 33.25 19.3296 33.3422 19.4937 33.5063C19.6578 33.6704 19.75 33.8929 19.75 34.125V39.375C19.75 39.6071 19.8422 39.8296 20.0063 39.9937C20.1704 40.1578 20.3929 40.25 20.625 40.25H25.875C26.1071 40.25 26.3296 40.3422 26.4937 40.5063C26.6578 40.6704 26.75 40.8929 26.75 41.125C26.75 41.3571 26.6578 41.5796 26.4937 41.7437C26.3296 41.9078 26.1071 42 25.875 42H20.625C19.9288 42 19.2611 41.7234 18.7688 41.2312C18.2766 40.7389 18 40.0712 18 39.375V34.125C18 33.8929 18.0922 33.6704 18.2563 33.5063C18.4204 33.3422 18.6429 33.25 18.875 33.25ZM45.125 33.25C45.3571 33.25 45.5796 33.3422 45.7437 33.5063C45.9078 33.6704 46 33.8929 46 34.125V39.375C46 40.0712 45.7234 40.7389 45.2312 41.2312C44.7389 41.7234 44.0712 42 43.375 42H38.125C37.8929 42 37.6704 41.9078 37.5063 41.7437C37.3422 41.5796 37.25 41.3571 37.25 41.125C37.25 40.8929 37.3422 40.6704 37.5063 40.5063C37.6704 40.3422 37.8929 40.25 38.125 40.25H43.375C43.6071 40.25 43.8296 40.1578 43.9937 39.9937C44.1578 39.8296 44.25 39.6071 44.25 39.375V34.125C44.25 33.8929 44.3422 33.6704 44.5063 33.5063C44.6704 33.3422 44.8929 33.25 45.125 33.25ZM23.25 21.875C23.25 21.6429 23.3422 21.4204 23.5063 21.2563C23.6704 21.0922 23.8929 21 24.125 21C24.3571 21 24.5796 21.0922 24.7437 21.2563C24.9078 21.4204 25 21.6429 25 21.875V34.125C25 34.3571 24.9078 34.5796 24.7437 34.7437C24.5796 34.9078 24.3571 35 24.125 35C23.8929 35 23.6704 34.9078 23.5063 34.7437C23.3422 34.5796 23.25 34.3571 23.25 34.125V21.875ZM26.75 21.875C26.75 21.6429 26.8422 21.4204 27.0063 21.2563C27.1704 21.0922 27.3929 21 27.625 21C27.8571 21 28.0796 21.0922 28.2437 21.2563C28.4078 21.4204 28.5 21.6429 28.5 21.875V34.125C28.5 34.3571 28.4078 34.5796 28.2437 34.7437C28.0796 34.9078 27.8571 35 27.625 35C27.3929 35 27.1704 34.9078 27.0063 34.7437C26.8422 34.5796 26.75 34.3571 26.75 34.125V21.875ZM30.25 21.875C30.25 21.6429 30.3422 21.4204 30.5063 21.2563C30.6704 21.0922 30.8929 21 31.125 21C31.3571 21 31.5796 21.0922 31.7437 21.2563C31.9078 21.4204 32 21.6429 32 21.875V34.125C32 34.3571 31.9078 34.5796 31.7437 34.7437C31.5796 34.9078 31.3571 35 31.125 35C30.8929 35 30.6704 34.9078 30.5063 34.7437C30.3422 34.5796 30.25 34.3571 30.25 34.125V21.875ZM33.75 21.875C33.75 21.6429 33.8422 21.4204 34.0063 21.2563C34.1704 21.0922 34.3929 21 34.625 21H36.375C36.6071 21 36.8296 21.0922 36.9937 21.2563C37.1578 21.4204 37.25 21.6429 37.25 21.875V34.125C37.25 34.3571 37.1578 34.5796 36.9937 34.7437C36.8296 34.9078 36.6071 35 36.375 35H34.625C34.3929 35 34.1704 34.9078 34.0063 34.7437C33.8422 34.5796 33.75 34.3571 33.75 34.125V21.875ZM39 21.875C39 21.6429 39.0922 21.4204 39.2563 21.2563C39.4204 21.0922 39.6429 21 39.875 21C40.1071 21 40.3296 21.0922 40.4937 21.2563C40.6578 21.4204 40.75 21.6429 40.75 21.875V34.125C40.75 34.3571 40.6578 34.5796 40.4937 34.7437C40.3296 34.9078 40.1071 35 39.875 35C39.6429 35 39.4204 34.9078 39.2563 34.7437C39.0922 34.5796 39 34.3571 39 34.125V21.875Z" fill="white"/>
</g>
<defs>
<filter id="filter0_d_429_495" x="0" y="0" width="64" height="64" filterUnits="userSpaceOnUse" color-interpolation-filters="sRGB">
<feFlood flood-opacity="0" result="BackgroundImageFix"/>
<feColorMatrix in="SourceAlpha" type="matrix" values="0 0 0 0 0 0 0 0 0 0 0 0 0 0 0 0 0 0 127 0" result="hardAlpha"/>
<feOffset dy="4"/>
<feGaussianBlur stdDeviation="2"/>
<feComposite in2="hardAlpha" operator="out"/>
<feColorMatrix type="matrix" values="0 0 0 0 1 0 0 0 0 0.886275 0 0 0 0 0.854902 0 0 0 0.32 0"/>
<feBlend mode="multiply" in2="BackgroundImageFix" result="effect1_dropShadow_429_495"/>
<feBlend mode="normal" in="SourceGraphic" in2="effect1_dropShadow_429_495" result="shape"/>
</filter>
<clipPath id="clip0_429_495">
<rect width="28" height="28" fill="white" transform="translate(18 14)"/>
</clipPath>
</defs>
</svg>
