<svg width="28" height="28" viewBox="0 0 28 28" fill="none" xmlns="http://www.w3.org/2000/svg">
<path d="M12.8333 19.8334H15.1667V15.1667H19.8333V12.8334H15.1667V8.16671H12.8333V12.8334H8.16667V15.1667H12.8333V19.8334ZM14 25.6667C12.3861 25.6667 10.8694 25.3605 9.45 24.748C8.03056 24.1355 6.79584 23.3042 5.74584 22.2542C4.69584 21.2042 3.86459 19.9695 3.25209 18.55C2.63959 17.1306 2.33334 15.6139 2.33334 14C2.33334 12.3862 2.63959 10.8695 3.25209 9.45004C3.86459 8.0306 4.69584 6.79587 5.74584 5.74587C6.79584 4.69587 8.03056 3.86462 9.45 3.25212C10.8694 2.63962 12.3861 2.33337 14 2.33337C15.6139 2.33337 17.1306 2.63962 18.55 3.25212C19.9694 3.86462 21.2042 4.69587 22.2542 5.74587C23.3042 6.79587 24.1354 8.0306 24.7479 9.45004C25.3604 10.8695 25.6667 12.3862 25.6667 14C25.6667 15.6139 25.3604 17.1306 24.7479 18.55C24.1354 19.9695 23.3042 21.2042 22.2542 22.2542C21.2042 23.3042 19.9694 24.1355 18.55 24.748C17.1306 25.3605 15.6139 25.6667 14 25.6667ZM14 23.3334C16.6056 23.3334 18.8125 22.4292 20.6208 20.6209C22.4292 18.8125 23.3333 16.6056 23.3333 14C23.3333 11.3945 22.4292 9.18754 20.6208 7.37921C18.8125 5.57087 16.6056 4.66671 14 4.66671C11.3944 4.66671 9.1875 5.57087 7.37917 7.37921C5.57084 9.18754 4.66667 11.3945 4.66667 14C4.66667 16.6056 5.57084 18.8125 7.37917 20.6209C9.1875 22.4292 11.3944 23.3334 14 23.3334Z" fill="#0EA5E9"/>
</svg>
