<svg width="28" height="28" viewBox="0 0 28 28" fill="none" xmlns="http://www.w3.org/2000/svg">
<path d="M12.8333 19.8333H15.1667V15.1666H19.8333V12.8333H15.1667V8.16658H12.8333V12.8333H8.16667V15.1666H12.8333V19.8333ZM14 25.6666C12.3861 25.6666 10.8694 25.3603 9.45 24.7478C8.03056 24.1353 6.79584 23.3041 5.74584 22.2541C4.69584 21.2041 3.86459 19.9694 3.25209 18.5499C2.63959 17.1305 2.33334 15.6138 2.33334 13.9999C2.33334 12.386 2.63959 10.8694 3.25209 9.44992C3.86459 8.03047 4.69584 6.79575 5.74584 5.74575C6.79584 4.69575 8.03056 3.8645 9.45 3.252C10.8694 2.6395 12.3861 2.33325 14 2.33325C15.6139 2.33325 17.1306 2.6395 18.55 3.252C19.9694 3.8645 21.2042 4.69575 22.2542 5.74575C23.3042 6.79575 24.1354 8.03047 24.7479 9.44992C25.3604 10.8694 25.6667 12.386 25.6667 13.9999C25.6667 15.6138 25.3604 17.1305 24.7479 18.5499C24.1354 19.9694 23.3042 21.2041 22.2542 22.2541C21.2042 23.3041 19.9694 24.1353 18.55 24.7478C17.1306 25.3603 15.6139 25.6666 14 25.6666ZM14 23.3333C16.6056 23.3333 18.8125 22.4291 20.6208 20.6208C22.4292 18.8124 23.3333 16.6055 23.3333 13.9999C23.3333 11.3944 22.4292 9.18742 20.6208 7.37909C18.8125 5.57075 16.6056 4.66659 14 4.66659C11.3944 4.66659 9.1875 5.57075 7.37917 7.37909C5.57084 9.18742 4.66667 11.3944 4.66667 13.9999C4.66667 16.6055 5.57084 18.8124 7.37917 20.6208C9.1875 22.4291 11.3944 23.3333 14 23.3333Z" fill="#0EA5E9"/>
</svg>
