<svg width="46" height="46" viewBox="0 0 46 46" fill="none" xmlns="http://www.w3.org/2000/svg">
<path d="M44.5625 21.9219H42.7656V15.8125C42.7656 15.1453 42.5006 14.5055 42.0288 14.0337C41.557 13.5619 40.9172 13.2969 40.25 13.2969H37.0156V11.5C37.0156 10.8328 36.7506 10.193 36.2788 9.72118C35.807 9.24941 35.1672 8.98438 34.5 8.98438H30.1875C29.5203 8.98438 28.8805 9.24941 28.4087 9.72118C27.9369 10.193 27.6719 10.8328 27.6719 11.5V21.9219H18.3281V11.5C18.3281 10.8328 18.0631 10.193 17.5913 9.72118C17.1195 9.24941 16.4797 8.98438 15.8125 8.98438H11.5C10.8328 8.98438 10.193 9.24941 9.72118 9.72118C9.24941 10.193 8.98438 10.8328 8.98438 11.5V13.2969H5.75C5.08281 13.2969 4.44296 13.5619 3.97118 14.0337C3.49941 14.5055 3.23438 15.1453 3.23438 15.8125V21.9219H1.4375C1.15156 21.9219 0.877338 22.0355 0.67515 22.2377C0.472963 22.4398 0.359375 22.7141 0.359375 23C0.359375 23.2859 0.472963 23.5602 0.67515 23.7624C0.877338 23.9645 1.15156 24.0781 1.4375 24.0781H3.23438V30.1875C3.23438 30.8547 3.49941 31.4945 3.97118 31.9663C4.44296 32.4381 5.08281 32.7031 5.75 32.7031H8.98438V34.5C8.98438 35.1672 9.24941 35.807 9.72118 36.2788C10.193 36.7506 10.8328 37.0156 11.5 37.0156H15.8125C16.4797 37.0156 17.1195 36.7506 17.5913 36.2788C18.0631 35.807 18.3281 35.1672 18.3281 34.5V24.0781H27.6719V34.5C27.6719 35.1672 27.9369 35.807 28.4087 36.2788C28.8805 36.7506 29.5203 37.0156 30.1875 37.0156H34.5C35.1672 37.0156 35.807 36.7506 36.2788 36.2788C36.7506 35.807 37.0156 35.1672 37.0156 34.5V32.7031H40.25C40.9172 32.7031 41.557 32.4381 42.0288 31.9663C42.5006 31.4945 42.7656 30.8547 42.7656 30.1875V24.0781H44.5625C44.8484 24.0781 45.1227 23.9645 45.3249 23.7624C45.527 23.5602 45.6406 23.2859 45.6406 23C45.6406 22.7141 45.527 22.4398 45.3249 22.2377C45.1227 22.0355 44.8484 21.9219 44.5625 21.9219ZM5.75 30.5469C5.65469 30.5469 5.56328 30.509 5.49588 30.4416C5.42849 30.3742 5.39062 30.2828 5.39062 30.1875V15.8125C5.39062 15.7172 5.42849 15.6258 5.49588 15.5584C5.56328 15.491 5.65469 15.4531 5.75 15.4531H8.98438V30.5469H5.75ZM16.1719 34.5C16.1719 34.5953 16.134 34.6867 16.0666 34.7541C15.9992 34.8215 15.9078 34.8594 15.8125 34.8594H11.5C11.4047 34.8594 11.3133 34.8215 11.2459 34.7541C11.1785 34.6867 11.1406 34.5953 11.1406 34.5V11.5C11.1406 11.4047 11.1785 11.3133 11.2459 11.2459C11.3133 11.1785 11.4047 11.1406 11.5 11.1406H15.8125C15.9078 11.1406 15.9992 11.1785 16.0666 11.2459C16.134 11.3133 16.1719 11.4047 16.1719 11.5V34.5ZM34.8594 34.5C34.8594 34.5953 34.8215 34.6867 34.7541 34.7541C34.6867 34.8215 34.5953 34.8594 34.5 34.8594H30.1875C30.0922 34.8594 30.0008 34.8215 29.9334 34.7541C29.866 34.6867 29.8281 34.5953 29.8281 34.5V11.5C29.8281 11.4047 29.866 11.3133 29.9334 11.2459C30.0008 11.1785 30.0922 11.1406 30.1875 11.1406H34.5C34.5953 11.1406 34.6867 11.1785 34.7541 11.2459C34.8215 11.3133 34.8594 11.4047 34.8594 11.5V34.5ZM40.6094 30.1875C40.6094 30.2828 40.5715 30.3742 40.5041 30.4416C40.4367 30.509 40.3453 30.5469 40.25 30.5469H37.0156V15.4531H40.25C40.3453 15.4531 40.4367 15.491 40.5041 15.5584C40.5715 15.6258 40.6094 15.7172 40.6094 15.8125V30.1875Z" fill="black"/>
</svg>
