<svg width="46" height="46" viewBox="0 0 46 46" fill="none" xmlns="http://www.w3.org/2000/svg">
<path d="M13.8 6.89999C11.97 6.89999 10.215 7.62696 8.92096 8.92096C7.62696 10.215 6.89999 11.97 6.89999 13.8V32.2C6.89999 34.03 7.62696 35.785 8.92096 37.079C10.215 38.373 11.97 39.1 13.8 39.1H25.116L23.0943 37.0645C23.0088 36.9782 22.9252 36.89 22.8436 36.8H13.8C12.58 36.8 11.41 36.3154 10.5473 35.4527C9.68464 34.59 9.19999 33.42 9.19999 32.2V18.5334L21.85 18.4115V27.0273C22.4341 26.0409 23.2174 25.187 24.15 24.5203V9.19999H32.2C33.42 9.19999 34.59 9.68464 35.4527 10.5473C36.3154 11.41 36.8 12.58 36.8 13.8V23.0621C37.5636 22.9678 38.341 22.9816 39.1 23.1035V13.8C39.1 11.97 38.373 10.215 37.079 8.92096C35.785 7.62696 34.03 6.89999 32.2 6.89999H13.8ZM9.19999 13.8C9.19999 12.58 9.68464 11.41 10.5473 10.5473C11.41 9.68464 12.58 9.19999 13.8 9.19999H21.85V16.1115L9.19999 16.2334V13.8ZM39.1 25.4449C40.1906 25.6911 41.1876 26.2451 41.9727 27.0411C43.0785 28.1597 43.6987 29.6691 43.6987 31.242C43.6987 32.815 43.0785 34.3244 41.9727 35.443L34.0814 43.3941C33.9856 43.4906 33.8717 43.5672 33.7461 43.6195C33.6206 43.6718 33.486 43.6987 33.35 43.6987C33.214 43.6987 33.0794 43.6718 32.9538 43.6195C32.8283 43.5672 32.7144 43.4906 32.6186 43.3941L24.725 35.443C23.6196 34.3237 22.9997 32.814 22.9997 31.2409C22.9997 29.6678 23.6196 28.158 24.725 27.0388C25.2704 26.4873 25.9198 26.0496 26.6356 25.7508C27.3513 25.452 28.1193 25.2981 28.8949 25.2981C29.6705 25.2981 30.4384 25.452 31.1542 25.7508C31.87 26.0496 32.5194 26.4873 33.0648 27.0388L33.3477 27.324L33.6306 27.0411C34.331 26.3314 35.2009 25.8123 36.1581 25.533C37.1152 25.2536 38.1279 25.2233 39.1 25.4449Z" fill="black"/>
</svg>
