<svg width="46" height="46" viewBox="0 0 46 46" fill="none" xmlns="http://www.w3.org/2000/svg">
<path d="M41.6875 37.375C41.6875 37.7562 41.536 38.1219 41.2665 38.3915C40.9969 38.6611 40.6312 38.8125 40.25 38.8125H5.75C5.36875 38.8125 5.00312 38.6611 4.73353 38.3915C4.46395 38.1219 4.3125 37.7562 4.3125 37.375V8.625C4.3125 8.24375 4.46395 7.87812 4.73353 7.60853C5.00312 7.33895 5.36875 7.1875 5.75 7.1875C6.13125 7.1875 6.49688 7.33895 6.76647 7.60853C7.03605 7.87812 7.1875 8.24375 7.1875 8.625V28.1552L16.233 19.108C16.3665 18.9743 16.525 18.8683 16.6995 18.7959C16.874 18.7236 17.0611 18.6864 17.25 18.6864C17.4389 18.6864 17.626 18.7236 17.8005 18.7959C17.975 18.8683 18.1335 18.9743 18.267 19.108L23 23.8427L32.4677 14.375H28.75C28.3688 14.375 28.0031 14.2235 27.7335 13.954C27.4639 13.6844 27.3125 13.3187 27.3125 12.9375C27.3125 12.5563 27.4639 12.1906 27.7335 11.921C28.0031 11.6515 28.3688 11.5 28.75 11.5H35.9375C36.3187 11.5 36.6844 11.6515 36.954 11.921C37.2235 12.1906 37.375 12.5563 37.375 12.9375V20.125C37.375 20.5062 37.2235 20.8719 36.954 21.1415C36.6844 21.411 36.3187 21.5625 35.9375 21.5625C35.5563 21.5625 35.1906 21.411 34.921 21.1415C34.6514 20.8719 34.5 20.5062 34.5 20.125V16.4073L24.017 26.892C23.8835 27.0257 23.725 27.1317 23.5505 27.2041C23.376 27.2764 23.1889 27.3136 23 27.3136C22.8111 27.3136 22.624 27.2764 22.4495 27.2041C22.275 27.1317 22.1165 27.0257 21.983 26.892L17.25 22.1573L7.1875 32.2198V35.9375H40.25C40.6312 35.9375 40.9969 36.0889 41.2665 36.3585C41.536 36.6281 41.6875 36.9938 41.6875 37.375Z" fill="black"/>
</svg>
