<svg width="348" height="138" viewBox="0 0 348 138" fill="none" xmlns="http://www.w3.org/2000/svg">
<path fill-rule="evenodd" clip-rule="evenodd" d="M2.07514 137.153L2.09039 26.5851C2.09039 26.5851 1.90947 24.1729 2.09039 23.4647C4.43824 14.2749 14.0118 13.448 15.6884 13.448C26.5106 13.448 57.6457 58.5103 71.5384 58.5103C85.4311 58.5103 110.228 31.2475 126.81 31.2475C143.392 31.2475 170.56 65.5941 184.067 65.5941C197.575 65.5941 220.268 7.3464 235.953 7.3464C251.639 7.3464 270.221 58.5103 283.217 58.5103C290.107 58.5103 304.558 49.9206 315.777 42.8457C322.452 38.6356 327.932 35.0064 330.133 33.9204C334.013 32.0066 339.875 30.3667 341.778 27.9528C343.681 25.539 345.308 22.3955 346.017 15.2132C346.433 10.9896 346.017 3.11713 346.017 3.11713L348 3.11713V137.153H2.07514Z" fill="url(#paint0_linear_60_2679)"/>
<path d="M1.99994 24.6238C1.99994 24.6238 4.77457 12.699 15.4953 12.699C26.216 12.699 57.6579 57.3707 71.4204 57.3707C85.1829 57.3707 110.472 30.4551 126.898 30.4551C143.324 30.4551 169.512 64.4204 183.718 64.4204C197.924 64.4204 220.239 7.32558 235.778 7.32558C251.316 7.32558 269.719 57.3707 282.594 57.3707C295.468 57.3707 325.179 33.2704 335.834 30.4551C346.489 27.6397 344.782 3.11713 344.782 3.11713" stroke="#0EA5E9" stroke-width="3"/>
<circle cx="234.745" cy="7.27327" r="5.27327" fill="white" stroke="#0EA5E9" stroke-width="4"/>
<defs>
<linearGradient id="paint0_linear_60_2679" x1="1.99997" y1="3.11713" x2="1.99997" y2="137.153" gradientUnits="userSpaceOnUse">
<stop stop-color="#0EA5E9"/>
<stop offset="1" stop-color="#76EEAE" stop-opacity="0.01"/>
</linearGradient>
</defs>
</svg>
