<svg width="46" height="46" viewBox="0 0 46 46" fill="none" xmlns="http://www.w3.org/2000/svg">
<path d="M16.6175 19.1866C16.7136 19.4757 16.6911 19.7912 16.5548 20.0638C16.4186 20.3363 16.1797 20.5436 15.8907 20.6402C15.5376 20.7518 15.2101 20.9323 14.927 21.1711C14.644 21.4099 14.4111 21.7024 14.2416 22.0317C13.8138 22.8344 13.524 24.1546 13.7931 26.3097C13.8306 26.6126 13.7463 26.9179 13.5587 27.1586C13.371 27.3993 13.0955 27.5556 12.7926 27.5931C12.4897 27.6306 12.1844 27.5463 11.9437 27.3586C11.703 27.171 11.5467 26.8955 11.5092 26.5926C11.2056 24.1477 11.4885 22.3054 12.213 20.9507C12.949 19.5707 14.0691 18.8232 15.1616 18.4598C15.3049 18.4118 15.4563 18.3926 15.607 18.4032C15.7578 18.4137 15.905 18.4539 16.0402 18.5214C16.1754 18.5889 16.296 18.6824 16.395 18.7966C16.4941 18.9107 16.5697 19.0432 16.6175 19.1866ZM27.9657 6.84019C28.1129 6.79559 28.2496 6.72193 28.3678 6.62356C28.486 6.5252 28.5832 6.40413 28.6538 6.26752C28.7244 6.1309 28.7669 5.98152 28.7787 5.82821C28.7906 5.6749 28.7715 5.52077 28.7228 5.37493C28.674 5.2291 28.5965 5.09453 28.4948 4.97918C28.3931 4.86383 28.2693 4.77004 28.1308 4.70336C27.9922 4.63669 27.8417 4.59848 27.6881 4.59099C27.5345 4.58351 27.381 4.6069 27.2366 4.65979C25.0815 5.37739 23.736 7.14839 22.9448 9.04589C22.8386 9.30238 22.7411 9.56243 22.6527 9.82559C22.2218 9.00941 21.6706 8.26274 21.0174 7.61069C20.1334 6.72475 19.0774 6.029 17.9146 5.56622C16.7517 5.10344 15.5064 4.88342 14.2554 4.91969C12.9214 4.95649 11.8565 6.02369 11.8197 7.35539C11.7831 8.62308 12.0097 9.88458 12.4852 11.0603C12.9606 12.236 13.6746 13.3004 14.582 14.1864C12.65 14.6049 10.904 15.6343 9.60253 17.1222C8.30103 18.6101 7.51311 20.4775 7.3554 22.448L7.3416 22.6182C7.03796 26.4067 7.84521 30.2017 9.6646 33.5386L10.4926 35.052C10.5156 35.0911 10.5386 35.1302 10.5662 35.167L12.8662 38.3916C13.3875 39.1216 14.0616 39.7293 14.8415 40.1724C15.6215 40.6156 16.4886 40.8834 17.3826 40.9574C18.2766 41.0314 19.176 40.9097 20.0182 40.6009C20.8604 40.292 21.6252 39.8034 22.2594 39.169C22.3568 39.0716 22.4724 38.9943 22.5997 38.9415C22.727 38.8888 22.8634 38.8617 23.0011 38.8617C23.1389 38.8617 23.2753 38.8888 23.4026 38.9415C23.5299 38.9943 23.6455 39.0716 23.7429 39.169C24.3771 39.8034 25.1419 40.292 25.9841 40.6009C26.8263 40.9097 27.7257 41.0314 28.6197 40.9574C29.5137 40.8834 30.3808 40.6156 31.1608 40.1724C31.9407 39.7293 32.6148 39.1216 33.1361 38.3916L35.4361 35.1693C35.4629 35.1317 35.4875 35.0925 35.5097 35.052L36.3354 33.5386C38.1548 30.2017 38.962 26.4067 38.6584 22.6182L38.6469 22.448C38.5451 21.1779 38.1806 19.9428 37.5765 18.8209C36.9724 17.6991 36.1418 16.715 35.1374 15.9309C34.133 15.1469 32.9767 14.58 31.7418 14.2662C30.5069 13.9525 29.2202 13.8987 27.9634 14.1082L24.1523 14.743C24.1753 13.1767 24.4513 11.4149 25.07 9.92909C25.714 8.37659 26.6708 7.27259 27.9634 6.84019M20.0537 14.444L19.6995 14.3842C18.3489 14.1236 17.1077 13.4634 16.1368 12.489C15.4723 11.8261 14.9505 11.0341 14.6036 10.1619C14.2567 9.28972 14.092 8.35574 14.1197 7.41749C14.1203 7.36461 14.1416 7.31406 14.179 7.27666C14.2164 7.23926 14.2669 7.21799 14.3198 7.21739C15.2582 7.19 16.1923 7.35504 17.0645 7.70234C17.9367 8.04964 18.7286 8.57185 19.3913 9.23679C20.7874 10.6329 21.4613 12.4752 21.4084 14.3083C21.4078 14.3612 21.3865 14.4117 21.3491 14.4491C21.3117 14.4865 21.2612 14.5078 21.2083 14.5084C20.8223 14.5191 20.4361 14.4975 20.0537 14.444ZM19.2993 16.6497L19.6972 16.7164L21.4889 17.0154C22.4902 17.1822 23.5121 17.1822 24.5134 17.0154L28.3406 16.376C29.2833 16.2188 30.2485 16.2591 31.1748 16.4944C32.1012 16.7298 32.9685 17.155 33.7219 17.7432C34.4752 18.3314 35.0982 19.0696 35.5513 19.9112C36.0043 20.7527 36.2776 21.6793 36.3538 22.632L36.3676 22.8022C36.6352 26.1457 35.9223 29.4946 34.316 32.4392L33.5248 33.8882L31.2639 37.053C30.9369 37.5113 30.514 37.8928 30.0246 38.1711C29.5352 38.4494 28.9911 38.6177 28.43 38.6643C27.869 38.711 27.3045 38.6348 26.7759 38.4411C26.2472 38.2474 25.7671 37.9409 25.369 37.5429C25.058 37.2316 24.6887 36.9847 24.2822 36.8162C23.8757 36.6477 23.44 36.561 23 36.561C22.56 36.561 22.1243 36.6477 21.7178 36.8162C21.3113 36.9847 20.942 37.2316 20.631 37.5429C20.2329 37.9405 19.7529 38.2467 19.2245 38.4401C18.6961 38.6336 18.132 38.7096 17.5712 38.663C17.0105 38.6164 16.4666 38.4482 15.9774 38.1702C15.4882 37.8921 15.0654 37.5109 14.7384 37.053L12.4775 33.8882L11.6863 32.4392C10.08 29.4946 9.36709 26.1457 9.6347 22.8022L9.6485 22.632C9.72472 21.6795 9.99794 20.7532 10.4509 19.9118C10.9038 19.0704 11.5265 18.3323 12.2796 17.7442C13.0327 17.156 13.8998 16.7307 14.8259 16.4952C15.7519 16.2597 16.7168 16.2191 17.6594 16.376L19.2993 16.6497Z" fill="black"/>
</svg>
