<svg width="42" height="42" viewBox="0 0 42 42" fill="none" xmlns="http://www.w3.org/2000/svg">
<rect width="42" height="42" rx="21" fill="#F6F6F6"/>
<path d="M18 19C19.1046 19 20 18.1046 20 17C20 15.8954 19.1046 15 18 15C16.8954 15 16 15.8954 16 17C16 18.1046 16.8954 19 18 19Z" stroke="#171717" stroke-width="1.5" stroke-linecap="round" stroke-linejoin="round"/>
<path d="M22 11H18C13 11 11 13 11 18V24C11 29 13 31 18 31H24C29 31 31 29 31 24V19" stroke="#171717" stroke-width="1.5" stroke-linecap="round" stroke-linejoin="round"/>
<path d="M24.75 14H30.25" stroke="#171717" stroke-width="1.5" stroke-linecap="round"/>
<path d="M27.5 16.75V11.25" stroke="#171717" stroke-width="1.5" stroke-linecap="round"/>
<path d="M11.67 27.9501L16.6 24.6401C17.39 24.1101 18.53 24.1701 19.24 24.7801L19.57 25.0701C20.35 25.7401 21.61 25.7401 22.39 25.0701L26.55 21.5001C27.33 20.8301 28.59 20.8301 29.37 21.5001L31 22.9001" stroke="#171717" stroke-width="1.5" stroke-linecap="round" stroke-linejoin="round"/>
</svg>
