<svg width="24" height="24" viewBox="0 0 24 24" fill="none" xmlns="http://www.w3.org/2000/svg">
<mask id="mask0_417_492" style="mask-type:alpha" maskUnits="userSpaceOnUse" x="0" y="0" width="24" height="24">
<rect width="24" height="24" fill="#D9D9D9"/>
</mask>
<g mask="url(#mask0_417_492)">
<path d="M12.9462 12L8.87309 7.92689C8.73462 7.78844 8.66379 7.6144 8.66059 7.40479C8.65737 7.19519 8.7282 7.01795 8.87309 6.87309C9.01795 6.7282 9.19359 6.65576 9.39999 6.65576C9.60639 6.65576 9.78202 6.7282 9.92689 6.87309L14.4211 11.3673C14.5147 11.4609 14.5807 11.5596 14.6192 11.6635C14.6577 11.7673 14.6769 11.8795 14.6769 12C14.6769 12.1205 14.6577 12.2327 14.6192 12.3365C14.5807 12.4404 14.5147 12.5391 14.4211 12.6327L9.92689 17.1269C9.78844 17.2654 9.6144 17.3362 9.40479 17.3394C9.19519 17.3426 9.01795 17.2718 8.87309 17.1269C8.7282 16.982 8.65576 16.8064 8.65576 16.6C8.65576 16.3936 8.7282 16.218 8.87309 16.0731L12.9462 12Z" fill="#0076BE"/>
</g>
</svg>
