<svg width="17" height="17" viewBox="0 0 17 17" fill="none" xmlns="http://www.w3.org/2000/svg">
<path d="M8.49999 1.41675C6.54712 1.41675 4.95833 3.00554 4.95833 4.95842V6.37508H4.24999C3.4687 6.37508 2.83333 7.01046 2.83333 7.79175V14.1667C2.83333 14.948 3.4687 15.5834 4.24999 15.5834H12.75C13.5313 15.5834 14.1667 14.948 14.1667 14.1667V7.79175C14.1667 7.01046 13.5313 6.37508 12.75 6.37508H12.0417V4.95842C12.0417 3.00554 10.4529 1.41675 8.49999 1.41675ZM6.37499 4.95842C6.37499 3.78683 7.32841 2.83341 8.49999 2.83341C9.67158 2.83341 10.625 3.78683 10.625 4.95842V6.37508H6.37499V4.95842ZM12.7514 14.1667H9.20833V12.5532C9.62979 12.3074 9.91666 11.8555 9.91666 11.3334C9.91666 10.5521 9.28129 9.91675 8.49999 9.91675C7.7187 9.91675 7.08333 10.5521 7.08333 11.3334C7.08333 11.8547 7.3702 12.3074 7.79166 12.5532V14.1667H4.24999V7.79175H12.75L12.7514 14.1667Z" fill="white"/>
</svg>
