<svg width="17" height="17" viewBox="0 0 17 17" fill="none" xmlns="http://www.w3.org/2000/svg">
<path d="M4.95833 6.87508H5.45833V6.37508V4.95842C5.45833 3.28168 6.82326 1.91675 8.49999 1.91675C10.1767 1.91675 11.5417 3.28168 11.5417 4.95842V6.37508V6.87508H12.0417H12.75C13.2551 6.87508 13.6667 7.2866 13.6667 7.79175V14.1667C13.6667 14.6719 13.2551 15.0834 12.75 15.0834H4.24999C3.74485 15.0834 3.33333 14.6719 3.33333 14.1667V7.79175C3.33333 7.2866 3.74485 6.87508 4.24999 6.87508H4.95833ZM10.625 6.87508H11.125V6.37508V4.95842C11.125 3.51069 9.94772 2.33341 8.49999 2.33341C7.05227 2.33341 5.87499 3.51069 5.87499 4.95842V6.37508V6.87508H6.37499H10.625ZM12.7514 14.6667H13.2515L13.2514 14.1666L13.25 7.79164L13.2499 7.29175H12.75H4.24999H3.74999V7.79175V14.1667V14.6667H4.24999H7.79166H8.29166V14.1667V12.5532V12.2659L8.04355 12.1212C7.76537 11.959 7.58333 11.6652 7.58333 11.3334C7.58333 10.8283 7.99485 10.4167 8.49999 10.4167C9.00514 10.4167 9.41666 10.8283 9.41666 11.3334C9.41666 11.6658 9.23474 11.9589 8.95644 12.1212L8.70833 12.2659V12.5532V14.1667V14.6667H9.20833H12.7514Z" stroke="#0076BE"/>
</svg>
