<svg width="21" height="21" viewBox="0 0 21 21" fill="none" xmlns="http://www.w3.org/2000/svg">
<path d="M18.0501 13.999C17.982 13.917 17.9152 13.835 17.8496 13.7558C16.9472 12.6644 16.4013 12.0057 16.4013 8.91598C16.4013 7.31637 16.0186 6.00387 15.2643 5.01949C14.7082 4.29228 13.9564 3.74063 12.9654 3.33293C12.9527 3.32584 12.9413 3.31653 12.9318 3.30545C12.5754 2.11189 11.6 1.3125 10.5 1.3125C9.39993 1.3125 8.42499 2.11189 8.06856 3.30422C8.05905 3.31489 8.04782 3.3239 8.03534 3.33088C5.72288 4.28285 4.59905 6.10928 4.59905 8.91475C4.59905 12.0057 4.05395 12.6644 3.15079 13.7546C3.08516 13.8338 3.01831 13.9141 2.95022 13.9978C2.77435 14.2099 2.66292 14.468 2.62912 14.7414C2.59532 15.0149 2.64056 15.2923 2.7595 15.5408C3.01257 16.074 3.55192 16.405 4.16757 16.405H16.8369C17.4497 16.405 17.9853 16.0744 18.2392 15.5437C18.3587 15.2951 18.4043 15.0175 18.3708 14.7437C18.3373 14.4699 18.226 14.2115 18.0501 13.999ZM10.5 19.6875C11.0927 19.687 11.6742 19.5261 12.1828 19.2219C12.6915 18.9177 13.1083 18.4815 13.3891 17.9595C13.4023 17.9345 13.4089 17.9065 13.4081 17.8782C13.4073 17.8499 13.3992 17.8223 13.3846 17.7981C13.37 17.7739 13.3493 17.7538 13.3247 17.7399C13.3 17.726 13.2722 17.7187 13.2439 17.7188H7.75684C7.72851 17.7187 7.70064 17.7259 7.67594 17.7398C7.65123 17.7536 7.63054 17.7737 7.61588 17.7979C7.60122 17.8222 7.59309 17.8498 7.59227 17.8781C7.59146 17.9064 7.59799 17.9345 7.61124 17.9595C7.892 18.4814 8.30877 18.9176 8.81735 19.2218C9.32592 19.526 9.90735 19.6869 10.5 19.6875Z" fill="black"/>
</svg>
