<svg width="23" height="23" viewBox="0 0 23 23" fill="none" xmlns="http://www.w3.org/2000/svg">
<path d="M20.4233 6.59186L16.4082 2.57764C16.2747 2.44413 16.1162 2.33821 15.9418 2.26595C15.7673 2.19369 15.5804 2.15649 15.3916 2.15649C15.2028 2.15649 15.0158 2.19369 14.8414 2.26595C14.667 2.33821 14.5085 2.44413 14.375 2.57764L3.29637 13.6563C3.16231 13.7893 3.05602 13.9476 2.98368 14.122C2.91134 14.2965 2.8744 14.4836 2.87501 14.6724V18.6875C2.87501 19.0688 3.02646 19.4344 3.29604 19.704C3.56562 19.9736 3.93126 20.125 4.31251 20.125H8.32762C8.51647 20.1256 8.70355 20.0887 8.87799 20.0164C9.05243 19.944 9.21076 19.8377 9.34376 19.7037L16.861 12.1873L17.1736 13.4362L13.8674 16.7415C13.7325 16.8763 13.6567 17.0591 13.6566 17.2497C13.6565 17.4404 13.7322 17.6232 13.8669 17.7581C14.0017 17.893 14.1845 17.9688 14.3751 17.9689C14.5658 17.9689 14.7487 17.8933 14.8835 17.7585L18.4773 14.1648C18.5652 14.0771 18.6288 13.968 18.6621 13.8484C18.6953 13.7287 18.6969 13.6025 18.6668 13.482L18.0469 11.0014L20.4233 8.62503C20.5568 8.49154 20.6627 8.33306 20.735 8.15863C20.8072 7.9842 20.8444 7.79725 20.8444 7.60844C20.8444 7.41964 20.8072 7.23269 20.735 7.05826C20.6627 6.88383 20.5568 6.72535 20.4233 6.59186ZM4.31251 16.1099L6.89012 18.6875H4.31251V16.1099ZM8.62501 18.3901L4.60989 14.375L12.2188 6.76616L16.2339 10.7813L8.62501 18.3901ZM17.25 9.76514L13.2358 5.75003L15.392 3.59378L19.4063 7.60889L17.25 9.76514Z" fill="black"/>
</svg>
