<svg width="19" height="19" viewBox="0 0 19 19" fill="none" xmlns="http://www.w3.org/2000/svg">
<path d="M16.8714 5.44543L13.5546 2.12934C13.4443 2.01904 13.3134 1.93155 13.1693 1.87185C13.0252 1.81216 12.8708 1.78143 12.7148 1.78143C12.5588 1.78143 12.4044 1.81216 12.2603 1.87185C12.1162 1.93155 11.9853 2.01904 11.875 2.12934L2.72309 11.2813C2.61234 11.3911 2.52454 11.5219 2.46478 11.666C2.40502 11.8101 2.37451 11.9647 2.37501 12.1207V15.4375C2.37501 15.7524 2.50012 16.0545 2.72282 16.2772C2.94552 16.4999 3.24756 16.625 3.56251 16.625H6.87934C7.03534 16.6255 7.18989 16.595 7.33399 16.5352C7.4781 16.4755 7.60889 16.3877 7.71876 16.2769L13.9286 10.0678L14.1869 11.0994L11.4557 13.8299C11.3443 13.9412 11.2816 14.0923 11.2816 14.2497C11.2815 14.4072 11.344 14.5583 11.4553 14.6697C11.5666 14.7811 11.7176 14.8438 11.8751 14.8438C12.0326 14.8439 12.1837 14.7814 12.2951 14.6701L15.2638 11.7013C15.3364 11.6289 15.389 11.5388 15.4165 11.4399C15.4439 11.3411 15.4453 11.2368 15.4204 11.1373L14.9083 9.08809L16.8714 7.125C16.9817 7.01473 17.0692 6.88381 17.1289 6.73972C17.1886 6.59563 17.2193 6.44119 17.2193 6.28522C17.2193 6.12925 17.1886 5.97481 17.1289 5.83072C17.0692 5.68663 16.9817 5.55571 16.8714 5.44543ZM3.56251 13.3082L5.69184 15.4375H3.56251V13.3082ZM7.12501 15.1918L3.80817 11.875L10.0938 5.58942L13.4106 8.90625L7.12501 15.1918ZM14.25 8.06684L10.9339 4.75L12.7152 2.96875L16.0313 6.28559L14.25 8.06684Z" fill="black"/>
</svg>
