<svg width="28" height="28" viewBox="0 0 28 28" fill="none" xmlns="http://www.w3.org/2000/svg">
<g clip-path="url(#clip0_60_2697)">
<path d="M2.625 1.75C2.39294 1.75 2.17038 1.84219 2.00628 2.00628C1.84219 2.17038 1.75 2.39294 1.75 2.625V7.875C1.75 8.10706 1.65781 8.32962 1.49372 8.49372C1.32962 8.65781 1.10706 8.75 0.875 8.75C0.642936 8.75 0.420376 8.65781 0.256282 8.49372C0.0921872 8.32962 0 8.10706 0 7.875V2.625C0 1.92881 0.276562 1.26113 0.768845 0.768845C1.26113 0.276562 1.92881 0 2.625 0L7.875 0C8.10706 0 8.32962 0.0921872 8.49372 0.256282C8.65781 0.420376 8.75 0.642936 8.75 0.875C8.75 1.10706 8.65781 1.32962 8.49372 1.49372C8.32962 1.65781 8.10706 1.75 7.875 1.75H2.625ZM19.25 0.875C19.25 0.642936 19.3422 0.420376 19.5063 0.256282C19.6704 0.0921872 19.8929 0 20.125 0L25.375 0C26.0712 0 26.7389 0.276562 27.2312 0.768845C27.7234 1.26113 28 1.92881 28 2.625V7.875C28 8.10706 27.9078 8.32962 27.7437 8.49372C27.5796 8.65781 27.3571 8.75 27.125 8.75C26.8929 8.75 26.6704 8.65781 26.5063 8.49372C26.3422 8.32962 26.25 8.10706 26.25 7.875V2.625C26.25 2.39294 26.1578 2.17038 25.9937 2.00628C25.8296 1.84219 25.6071 1.75 25.375 1.75H20.125C19.8929 1.75 19.6704 1.65781 19.5063 1.49372C19.3422 1.32962 19.25 1.10706 19.25 0.875ZM0.875 19.25C1.10706 19.25 1.32962 19.3422 1.49372 19.5063C1.65781 19.6704 1.75 19.8929 1.75 20.125V25.375C1.75 25.6071 1.84219 25.8296 2.00628 25.9937C2.17038 26.1578 2.39294 26.25 2.625 26.25H7.875C8.10706 26.25 8.32962 26.3422 8.49372 26.5063C8.65781 26.6704 8.75 26.8929 8.75 27.125C8.75 27.3571 8.65781 27.5796 8.49372 27.7437C8.32962 27.9078 8.10706 28 7.875 28H2.625C1.92881 28 1.26113 27.7234 0.768845 27.2312C0.276562 26.7389 0 26.0712 0 25.375L0 20.125C0 19.8929 0.0921872 19.6704 0.256282 19.5063C0.420376 19.3422 0.642936 19.25 0.875 19.25ZM27.125 19.25C27.3571 19.25 27.5796 19.3422 27.7437 19.5063C27.9078 19.6704 28 19.8929 28 20.125V25.375C28 26.0712 27.7234 26.7389 27.2312 27.2312C26.7389 27.7234 26.0712 28 25.375 28H20.125C19.8929 28 19.6704 27.9078 19.5063 27.7437C19.3422 27.5796 19.25 27.3571 19.25 27.125C19.25 26.8929 19.3422 26.6704 19.5063 26.5063C19.6704 26.3422 19.8929 26.25 20.125 26.25H25.375C25.6071 26.25 25.8296 26.1578 25.9937 25.9937C26.1578 25.8296 26.25 25.6071 26.25 25.375V20.125C26.25 19.8929 26.3422 19.6704 26.5063 19.5063C26.6704 19.3422 26.8929 19.25 27.125 19.25ZM5.25 7.875C5.25 7.64294 5.34219 7.42038 5.50628 7.25628C5.67038 7.09219 5.89294 7 6.125 7C6.35706 7 6.57962 7.09219 6.74372 7.25628C6.90781 7.42038 7 7.64294 7 7.875V20.125C7 20.3571 6.90781 20.5796 6.74372 20.7437C6.57962 20.9078 6.35706 21 6.125 21C5.89294 21 5.67038 20.9078 5.50628 20.7437C5.34219 20.5796 5.25 20.3571 5.25 20.125V7.875ZM8.75 7.875C8.75 7.64294 8.84219 7.42038 9.00628 7.25628C9.17038 7.09219 9.39294 7 9.625 7C9.85706 7 10.0796 7.09219 10.2437 7.25628C10.4078 7.42038 10.5 7.64294 10.5 7.875V20.125C10.5 20.3571 10.4078 20.5796 10.2437 20.7437C10.0796 20.9078 9.85706 21 9.625 21C9.39294 21 9.17038 20.9078 9.00628 20.7437C8.84219 20.5796 8.75 20.3571 8.75 20.125V7.875ZM12.25 7.875C12.25 7.64294 12.3422 7.42038 12.5063 7.25628C12.6704 7.09219 12.8929 7 13.125 7C13.3571 7 13.5796 7.09219 13.7437 7.25628C13.9078 7.42038 14 7.64294 14 7.875V20.125C14 20.3571 13.9078 20.5796 13.7437 20.7437C13.5796 20.9078 13.3571 21 13.125 21C12.8929 21 12.6704 20.9078 12.5063 20.7437C12.3422 20.5796 12.25 20.3571 12.25 20.125V7.875ZM15.75 7.875C15.75 7.64294 15.8422 7.42038 16.0063 7.25628C16.1704 7.09219 16.3929 7 16.625 7H18.375C18.6071 7 18.8296 7.09219 18.9937 7.25628C19.1578 7.42038 19.25 7.64294 19.25 7.875V20.125C19.25 20.3571 19.1578 20.5796 18.9937 20.7437C18.8296 20.9078 18.6071 21 18.375 21H16.625C16.3929 21 16.1704 20.9078 16.0063 20.7437C15.8422 20.5796 15.75 20.3571 15.75 20.125V7.875ZM21 7.875C21 7.64294 21.0922 7.42038 21.2563 7.25628C21.4204 7.09219 21.6429 7 21.875 7C22.1071 7 22.3296 7.09219 22.4937 7.25628C22.6578 7.42038 22.75 7.64294 22.75 7.875V20.125C22.75 20.3571 22.6578 20.5796 22.4937 20.7437C22.3296 20.9078 22.1071 21 21.875 21C21.6429 21 21.4204 20.9078 21.2563 20.7437C21.0922 20.5796 21 20.3571 21 20.125V7.875Z" fill="white"/>
</g>
<defs>
<clipPath id="clip0_60_2697">
<rect width="28" height="28" fill="white"/>
</clipPath>
</defs>
</svg>
