<svg width="20" height="16" viewBox="0 0 20 16" fill="none" xmlns="http://www.w3.org/2000/svg">
<path d="M14.8108 13.0781C15.2597 12.7403 15.7287 12.2713 16.6667 11.3333C17.1357 10.8643 17.3702 10.6298 17.5391 10.4054C18.6112 8.98099 18.6112 7.01901 17.5391 5.59458C17.3702 5.37018 17.1357 5.13568 16.6667 4.66668L16.6667 4.66667C15.7287 3.72866 15.2597 3.25965 14.8108 2.92185C11.962 0.777661 8.03801 0.777661 5.18916 2.92185C4.74035 3.25965 4.27134 3.72866 3.33333 4.66667C2.86433 5.13567 2.62982 5.37017 2.46092 5.59458C1.38883 7.01901 1.38883 8.98099 2.46092 10.4054C2.62982 10.6298 2.86433 10.8643 3.33333 11.3333L3.33334 11.3333C4.27135 12.2713 4.74035 12.7404 5.18916 13.0781C8.03801 15.2223 11.962 15.2223 14.8108 13.0781Z" stroke="#B2BCC9" stroke-width="1.5" stroke-linecap="round" stroke-linejoin="round"/>
</svg>
