<svg width="51" height="22" viewBox="0 0 51 22" fill="none" xmlns="http://www.w3.org/2000/svg">
<path fill-rule="evenodd" clip-rule="evenodd" d="M9.45424 3.03397C8.86669 3.75242 7.92661 4.3191 6.98653 4.23814C6.86902 3.26671 7.32926 2.23456 7.86785 1.59705C8.4554 0.858358 9.48362 0.332163 10.316 0.291687C10.4139 1.3036 10.032 2.29527 9.45424 3.03397ZM10.3061 4.4304C9.47792 4.38114 8.72223 4.68778 8.11184 4.93545C7.71903 5.09484 7.3864 5.22981 7.13334 5.22981C6.84935 5.22981 6.50299 5.08762 6.1141 4.92798C5.60453 4.71879 5.02195 4.47964 4.41102 4.49111C3.01069 4.51135 1.70828 5.331 0.993431 6.63636C-0.475447 9.2471 0.611523 13.1126 2.03144 15.2376C2.72671 16.29 3.55907 17.4436 4.65583 17.4031C5.13834 17.3843 5.48543 17.2321 5.84464 17.0746C6.25818 16.8933 6.68778 16.7049 7.35857 16.7049C8.0061 16.7049 8.41692 16.8883 8.81127 17.0645C9.18624 17.2319 9.54633 17.3927 10.0809 17.3829C11.2168 17.3626 11.9317 16.3305 12.6269 15.2781C13.3773 14.1486 13.707 13.0462 13.757 12.879L13.7629 12.8596C13.7617 12.8584 13.7524 12.854 13.7361 12.8463L13.7361 12.8463C13.4852 12.7276 11.5682 11.8207 11.5498 9.38876C11.5313 7.34751 13.0703 6.31329 13.3126 6.15048C13.3274 6.14057 13.3373 6.13389 13.3418 6.13041C12.3625 4.63278 10.8349 4.47088 10.3061 4.4304ZM18.1696 17.2715V1.49585H23.8982C26.8556 1.49585 28.9218 3.60062 28.9218 6.67683C28.9218 9.75304 26.8164 11.8781 23.8199 11.8781H20.5394V17.2715H18.1696ZM20.5392 3.56015H23.2713C25.3277 3.56015 26.5028 4.69349 26.5028 6.68696C26.5028 8.68042 25.3277 9.82388 23.2615 9.82388H20.5392V3.56015ZM36.7461 15.3793C36.1194 16.6138 34.7387 17.393 33.2502 17.393C31.0469 17.393 29.5094 16.037 29.5094 13.993C29.5094 11.9691 30.9979 10.8054 33.7496 10.6334L36.7069 10.4513V9.58102C36.7069 8.2959 35.8942 7.59768 34.4449 7.59768C33.2502 7.59768 32.3787 8.23518 32.2024 9.20662H30.0676C30.1362 7.16256 31.9967 5.67505 34.5134 5.67505C37.226 5.67505 38.9886 7.14232 38.9886 9.41912V17.2715H36.7951V15.3793H36.7461ZM33.8865 15.521C32.6233 15.521 31.8203 14.8936 31.8203 13.9323C31.8203 12.9406 32.5939 12.3638 34.0726 12.2727L36.7068 12.1007V12.9912C36.7068 14.4686 35.4925 15.521 33.8865 15.521ZM46.2644 17.8888C45.3145 20.6513 44.2275 21.5621 41.9165 21.5621C41.7402 21.5621 41.1527 21.5418 41.0156 21.5013V19.6091C41.1624 19.6293 41.5248 19.6495 41.7108 19.6495C42.7586 19.6495 43.3462 19.1942 43.7085 18.0102L43.9239 17.312L39.909 5.82684H42.3865L45.1774 15.1465H45.2263L48.0172 5.82684H50.4262L46.2644 17.8888Z" fill="#1E293B"/>
</svg>
