<svg width="40" height="40" viewBox="0 0 40 40" fill="none" xmlns="http://www.w3.org/2000/svg">
<mask id="mask0_1_4248" style="mask-type:alpha" maskUnits="userSpaceOnUse" x="0" y="0" width="40" height="40">
<rect width="40" height="40" fill="white"/>
</mask>
<g mask="url(#mask0_1_4248)">
<path fill-rule="evenodd" clip-rule="evenodd" d="M13.4283 0.109921C13.2973 0.166952 13.0995 0.321326 12.9887 0.452966C12.8661 0.598668 11.7552 3.26881 10.1484 7.27972C7.31376 14.3556 7.32774 14.3133 7.63625 14.8982C7.70875 15.0356 7.89719 15.2466 8.05492 15.3669L8.34188 15.5858L13.1722 15.6071L18.0025 15.6283V16.2126V16.7968H16.4907C15.046 16.7968 14.967 16.8047 14.7133 16.9751C14.5473 17.0866 14.4069 17.2709 14.3385 17.4672C14.2354 17.7629 14.2437 17.8254 14.4839 18.5583C14.6239 18.986 14.8265 19.4665 14.9341 19.6262C15.1523 19.9504 15.7924 20.3124 16.1474 20.3124C16.7992 20.3124 17.5401 20.7333 17.8113 21.2577L17.9284 21.4843H17.5724C16.8963 21.4843 16.2823 21.8709 15.929 22.5191C15.747 22.8529 15.7055 23.0243 15.7068 23.4374C15.7077 23.7524 15.7564 24.0367 15.8352 24.1863L15.9621 24.4275L15.3871 24.5523C11.788 25.3333 10.6655 27.9741 12.42 31.5324C12.6555 32.0101 12.934 32.4935 13.0389 32.6066C13.3972 32.9932 14.0963 32.7978 14.0963 32.311C14.0963 32.2071 13.8874 31.7237 13.632 31.2368C13.3767 30.7498 13.0941 30.0819 13.0041 29.7525C12.8215 29.0845 12.7825 28.1767 12.9152 27.6877C13.2437 26.4775 14.8036 25.696 17.3189 25.4814L18.0025 25.4231V30.9537V36.4842H17.7789C17.5216 36.4842 17.2783 36.2442 16.1353 34.8625C15.7195 34.3598 15.3308 33.9636 15.2281 33.9379C15.0329 33.8889 14.7383 34.0147 14.5871 34.2118C14.3694 34.4953 14.4734 34.7219 15.2629 35.685L16.0389 36.6315L15.699 36.7961C14.9289 37.1688 14.3105 38.1617 14.2984 39.0445C14.292 39.5127 14.3072 39.557 14.5468 39.7714L14.8019 39.9998H19.7832C25.2683 39.9998 24.9731 40.026 25.2372 39.5154C25.603 38.8077 24.9073 37.3642 23.9374 36.819L23.5647 36.6095L24.1323 35.9414C24.8643 35.0798 25.9211 33.6502 26.4797 32.7661C28.2365 29.9854 28.4724 27.7212 27.1722 26.1187C26.6308 25.4513 25.3344 24.7743 24.1158 24.5226L23.6385 24.424L23.7645 24.1845C23.8423 24.0367 23.8911 23.7509 23.892 23.4374C23.8933 23.0243 23.8518 22.8529 23.6698 22.5191C23.3163 21.8706 22.7025 21.4843 22.0257 21.4843C21.681 21.4843 21.672 21.4782 21.759 21.3085C22.0512 20.7386 22.7665 20.3124 23.431 20.3124C23.8041 20.3124 24.4414 19.9579 24.6647 19.6262C24.7723 19.4665 24.9748 18.986 25.1149 18.5583C25.3551 17.8254 25.3633 17.7629 25.2603 17.4672C25.1919 17.2709 25.0515 17.0866 24.8855 16.9751C24.6318 16.8047 24.5528 16.7968 23.1081 16.7968H21.5963V16.2126V15.6283L26.4265 15.6071L31.2569 15.5858L31.5439 15.3669C31.9279 15.074 32.0953 14.7338 32.0898 14.2577C32.0863 13.9519 31.913 13.4349 31.2913 11.8749C30.8267 10.7092 30.4299 9.82604 30.335 9.74604C30.1017 9.54955 29.7501 9.57331 29.5224 9.80112C29.4169 9.90658 29.3306 10.0531 29.3306 10.1269C29.3306 10.2006 29.6856 11.1524 30.1194 12.2418C30.5533 13.3313 30.8884 14.2744 30.8641 14.3378C30.7976 14.511 8.8018 14.5127 8.73539 14.3395C8.69516 14.2347 13.7165 1.48835 13.8843 1.26952C13.939 1.1982 14.3156 1.17187 15.2813 1.17187C16.5808 1.17187 16.6067 1.16859 16.7951 0.980072C16.9006 0.874604 16.9869 0.697262 16.9869 0.585934C16.9869 0.474607 16.9006 0.297264 16.7951 0.191796C16.6049 0.00148435 16.5918 0 15.135 0.00304686C14.0917 0.00523435 13.5976 0.0361717 13.4283 0.109921ZM18.7192 0.18078C18.4936 0.421013 18.4985 0.784292 18.7302 1.00203C18.9101 1.17101 18.9286 1.17187 22.2753 1.17187C24.8741 1.17187 25.6569 1.19406 25.7156 1.26952C25.7574 1.32327 26.3791 2.85162 27.0971 4.66599C28.4866 8.17714 28.577 8.34589 29.0147 8.24362C29.2379 8.19151 29.565 7.86292 29.565 7.69097C29.565 7.4491 26.8008 0.679684 26.6089 0.451638C26.2297 0.00109374 26.2197 0 22.3936 0H18.8892L18.7192 0.18078ZM20.3463 16.2108V16.7968H19.7994H19.2525V16.2108V15.6249H19.7994H20.3463V16.2108ZM23.9988 18.0663C23.979 18.1201 23.9019 18.3489 23.8276 18.5749C23.6712 19.0508 23.5948 19.1033 22.9699 19.1647C21.9548 19.2643 20.9214 20.0637 20.5733 21.0183L20.4034 21.4843H19.7994H19.1953L19.0255 21.0183C18.6774 20.0637 17.6439 19.2643 16.6289 19.1647C16.3746 19.1397 16.1077 19.089 16.0356 19.0521C15.9197 18.9926 15.5807 18.2412 15.5807 18.0438C15.5807 17.9966 17.1516 17.9686 19.8077 17.9686C23.1566 17.9686 24.0273 17.989 23.9988 18.0663ZM22.3009 22.7741C22.5762 22.9164 22.69 23.1105 22.69 23.4374C22.69 23.7642 22.5762 23.9583 22.3009 24.1006C22.1127 24.1979 21.6743 24.2186 19.7994 24.2186C17.3854 24.2186 17.1809 24.1905 16.9892 23.8323C16.886 23.6396 16.8859 23.2355 16.9889 23.0431C17.1793 22.6872 17.3587 22.6625 19.7838 22.6592C21.677 22.6567 22.1122 22.6765 22.3009 22.7741ZM20.3463 26.4902V27.59L20.5746 27.8184C20.7002 27.944 20.8787 28.0467 20.9713 28.0467C21.0638 28.0467 21.2423 27.944 21.3679 27.8184L21.5963 27.59V26.5068V25.4236L22.358 25.4892C24.804 25.6998 26.3576 26.4866 26.6812 27.6789C26.8161 28.1759 26.7784 29.0802 26.5947 29.7525C26.2833 30.8926 25.1724 32.7332 23.6634 34.6092C22.4686 36.0946 22.0864 36.4842 21.8241 36.4842H21.5963V33.236V29.9878L21.3679 29.7594C21.0791 29.4706 20.8634 29.4706 20.5746 29.7594L20.3463 29.9878V33.236V36.4842H19.7994H19.2525V30.9373V25.3905H19.7994H20.3463V26.4902ZM23.0276 37.7398C23.3923 37.8411 23.8983 38.2835 24.0075 38.5967L24.0881 38.8279H19.8027C15.5528 38.8279 15.5175 38.8266 15.5581 38.6713C15.6293 38.3989 16.1546 37.8863 16.4791 37.7724C16.8726 37.6345 22.5464 37.6062 23.0276 37.7398Z" fill="#1E293B"/>
</g>
</svg>
