<svg width="24" height="24" viewBox="0 0 24 24" fill="none" xmlns="http://www.w3.org/2000/svg">
<mask id="mask0_1_279" style="mask-type:alpha" maskUnits="userSpaceOnUse" x="0" y="0" width="24" height="24">
<rect width="24" height="24" fill="white"/>
</mask>
<g mask="url(#mask0_1_279)">
<path d="M15.3333 8.27316C14.4487 7.48142 13.2806 7 12 7C9.23858 7 7 9.23858 7 12C7 14.7614 9.23858 17 12 17C13.2806 17 14.4487 16.5186 15.3333 15.7268M6 13.5H11M6 10.5H11M22 12C22 17.5228 17.5228 22 12 22C6.47715 22 2 17.5228 2 12C2 6.47715 6.47715 2 12 2C17.5228 2 22 6.47715 22 12Z" stroke="#666666" stroke-width="2" stroke-linecap="round" stroke-linejoin="round"/>
</g>
</svg>
