<svg width="24" height="24" viewBox="0 0 24 24" fill="none" xmlns="http://www.w3.org/2000/svg">
<mask id="mask0_1_3741" style="mask-type:alpha" maskUnits="userSpaceOnUse" x="0" y="0" width="24" height="24">
<rect width="24" height="24" fill="white"/>
</mask>
<g mask="url(#mask0_1_3741)">
<path d="M13.8201 19.07C13.8201 19.68 13.42 20.48 12.91 20.79L11.5001 21.7C10.1901 22.51 8.37006 21.6 8.37006 19.98V14.63C8.37006 13.92 7.97006 13.01 7.56006 12.51L3.72003 8.47C3.21003 7.96 2.81006 7.06001 2.81006 6.45001V4.13C2.81006 2.92 3.72008 2.01001 4.83008 2.01001H18.17C19.28 2.01001 20.1901 2.92 20.1901 4.03V6.25C20.1901 7.06 19.6801 8.07001 19.1801 8.57001" stroke="#1E293B" stroke-width="2" stroke-miterlimit="10" stroke-linecap="round" stroke-linejoin="round"/>
<path d="M15.5701 16.52C17.3374 16.52 18.7701 15.0873 18.7701 13.32C18.7701 11.5527 17.3374 10.12 15.5701 10.12C13.8028 10.12 12.3701 11.5527 12.3701 13.32C12.3701 15.0873 13.8028 16.52 15.5701 16.52Z" stroke="#1E293B" stroke-width="2" stroke-linecap="round" stroke-linejoin="round"/>
<path d="M19.3701 17.12L18.3701 16.12" stroke="#1E293B" stroke-width="2" stroke-linecap="round" stroke-linejoin="round"/>
</g>
</svg>
