<svg width="24" height="24" viewBox="0 0 24 24" fill="none" xmlns="http://www.w3.org/2000/svg">
<mask id="mask0_1_4851" style="mask-type:alpha" maskUnits="userSpaceOnUse" x="0" y="0" width="24" height="24">
<path d="M24 0H0V24H24V0Z" fill="white"/>
</mask>
<g mask="url(#mask0_1_4851)">
<path d="M2 2H3.74001C4.82001 2 5.67 2.93 5.58 4L4.75 13.96C4.61 15.59 5.89999 16.99 7.53999 16.99H18.19C19.63 16.99 20.89 15.81 21 14.38L21.54 6.88C21.66 5.22 20.4 3.87 18.73 3.87H5.82001" stroke="#1E293B" stroke-width="2" stroke-miterlimit="10" stroke-linecap="round" stroke-linejoin="round"/>
<path d="M16.25 22C16.9404 22 17.5 21.4404 17.5 20.75C17.5 20.0596 16.9404 19.5 16.25 19.5C15.5596 19.5 15 20.0596 15 20.75C15 21.4404 15.5596 22 16.25 22Z" stroke="#1E293B" stroke-width="2" stroke-miterlimit="10" stroke-linecap="round" stroke-linejoin="round"/>
<path d="M8.25 22C8.94036 22 9.5 21.4404 9.5 20.75C9.5 20.0596 8.94036 19.5 8.25 19.5C7.55964 19.5 7 20.0596 7 20.75C7 21.4404 7.55964 22 8.25 22Z" stroke="#1E293B" stroke-width="2" stroke-miterlimit="10" stroke-linecap="round" stroke-linejoin="round"/>
<path d="M9 8H21" stroke="#1E293B" stroke-width="2" stroke-miterlimit="10" stroke-linecap="round" stroke-linejoin="round"/>
</g>
</svg>
