<svg width="23" height="28" viewBox="0 0 23 28" fill="none" xmlns="http://www.w3.org/2000/svg">
<path fill-rule="evenodd" clip-rule="evenodd" d="M7.08806 26.6652L7.5425 23.7066L6.53018 23.6824H1.6962L5.05565 1.84959C5.06611 1.78348 5.09995 1.72211 5.14936 1.67845C5.19901 1.63479 5.2623 1.61084 5.3285 1.61084H13.4793C16.1855 1.61084 18.0529 2.18789 19.0277 3.32702C19.4848 3.86141 19.7759 4.41999 19.9169 5.03447C20.0646 5.67937 20.067 6.44977 19.923 7.38956L19.9125 7.45792V8.06017L20.3696 8.32562C20.7544 8.53493 21.0604 8.77443 21.295 9.04861C21.6859 9.50566 21.9388 10.0865 22.0457 10.7748C22.1562 11.4828 22.1197 12.3255 21.9388 13.2796C21.7302 14.3768 21.3931 15.3325 20.9377 16.1144C20.519 16.8349 19.9855 17.4327 19.3519 17.8957C18.7471 18.3358 18.0285 18.6698 17.2161 18.8836C16.4287 19.0937 15.531 19.1997 14.5464 19.1997H13.9121C13.4587 19.1997 13.0181 19.3671 12.6722 19.6673C12.3254 19.9736 12.0961 20.3923 12.0257 20.8501L11.9778 21.1165L11.1748 26.3314L11.1385 26.5227C11.1288 26.5834 11.1122 26.6136 11.0879 26.634C11.0662 26.6527 11.0351 26.6652 11.0047 26.6652H7.08806Z" fill="#28356A"/>
<path fill-rule="evenodd" clip-rule="evenodd" d="M20.8028 7.52747C20.7787 7.68688 20.7507 7.84979 20.7196 8.0172C19.6447 13.6739 15.9671 15.6281 11.2704 15.6281H8.87897C8.30454 15.6281 7.82041 16.0555 7.73108 16.6363L6.15991 26.8512C6.10174 27.2327 6.38847 27.5762 6.76379 27.5762H11.0053C11.5075 27.5762 11.9342 27.2023 12.0133 26.6946L12.0549 26.4738L12.8535 21.2793L12.9049 20.9944C12.983 20.485 13.4106 20.1108 13.9128 20.1108H14.5471C18.6565 20.1108 21.8735 18.4008 22.8138 13.4521C23.2064 11.3849 23.0032 9.65878 21.9638 8.44481C21.6494 8.07882 21.2592 7.77495 20.8028 7.52747Z" fill="#298FC2"/>
<path fill-rule="evenodd" clip-rule="evenodd" d="M19.6779 7.068C19.5136 7.01886 19.3442 6.97445 19.1704 6.93428C18.9956 6.89511 18.8167 6.86044 18.6325 6.83C17.9877 6.72322 17.2811 6.67258 16.5243 6.67258H10.1357C9.97825 6.67258 9.8288 6.709 9.69517 6.77486C9.40041 6.92006 9.18159 7.20597 9.12853 7.55599L7.76937 16.3791L7.73042 16.6363C7.81975 16.0555 8.30388 15.6282 8.87831 15.6282H11.2697C15.9665 15.6282 19.644 13.673 20.7189 8.01728C20.751 7.84988 20.7781 7.68697 20.8022 7.52755C20.5303 7.37961 20.2358 7.25312 19.9186 7.14534C19.8402 7.11865 19.7594 7.09295 19.6779 7.068Z" fill="#22284F"/>
<path fill-rule="evenodd" clip-rule="evenodd" d="M9.1289 7.55602C9.18196 7.206 9.40078 6.92009 9.69554 6.77589C9.83014 6.70978 9.97862 6.67336 10.1361 6.67336H16.5247C17.2814 6.67336 17.988 6.72425 18.6328 6.83103C18.8171 6.86122 18.996 6.89614 19.1707 6.93531C19.3445 6.97523 19.5139 7.01989 19.6782 7.06878C19.7598 7.09373 19.8406 7.11968 19.9197 7.14537C20.2368 7.25315 20.5316 7.38063 20.8035 7.52758C21.1233 5.43718 20.8008 4.01389 19.6982 2.72507C18.4824 1.30603 16.2884 0.698792 13.4807 0.698792H5.32962C4.75616 0.698792 4.26692 1.12615 4.17832 1.70794L0.783332 23.7653C0.716396 24.2016 1.04475 24.5953 1.47411 24.5953H6.50623L9.1289 7.55602Z" fill="#28356A"/>
</svg>
