<svg width="50" height="17" viewBox="0 0 50 17" fill="none" xmlns="http://www.w3.org/2000/svg">
<path fill-rule="evenodd" clip-rule="evenodd" d="M13.1329 16.3773H8.89223L5.71227 3.99276C5.56133 3.42308 5.24086 2.91944 4.76944 2.68207C3.59298 2.08555 2.2966 1.61081 0.88236 1.37138V0.894577H7.7137C8.65653 0.894577 9.36365 1.61081 9.4815 2.44264L11.1314 11.376L15.37 0.894577H19.4928L13.1329 16.3773ZM21.8499 16.3773H17.8449L21.1428 0.894577H25.1477L21.8499 16.3773ZM30.3291 5.18376C30.447 4.34987 31.1541 3.87306 31.979 3.87306C33.2754 3.75335 34.6876 3.99278 35.8661 4.58724L36.5732 1.25374C35.3947 0.77694 34.0983 0.537506 32.9219 0.537506C29.0348 0.537506 26.2063 2.68209 26.2063 5.65849C26.2063 7.92279 28.2098 9.1117 29.624 9.82794C31.1541 10.5421 31.7433 11.0189 31.6255 11.7331C31.6255 12.8043 30.447 13.2812 29.2705 13.2812C27.8563 13.2812 26.442 12.9241 25.1477 12.3275L24.4406 15.6631C25.8548 16.2576 27.3848 16.497 28.7991 16.497C33.1576 16.6146 35.8661 14.4721 35.8661 11.2563C35.8661 7.20656 30.3291 6.96919 30.3291 5.18376V5.18376ZM49.8824 16.3773L46.7024 0.894577H43.2867C42.5796 0.894577 41.8725 1.37138 41.6368 2.08555L35.7483 16.3773H39.871L40.6939 14.115H45.7596L46.231 16.3773H49.8824ZM43.876 5.06404L45.0525 10.8992H41.7546L43.876 5.06404Z" fill="#172B85"/>
</svg>
