<svg width="34" height="36" viewBox="0 0 34 36" fill="none" xmlns="http://www.w3.org/2000/svg">
<g filter="url(#filter0_d_1_1560)">
<mask id="mask0_1_1560" style="mask-type:alpha" maskUnits="userSpaceOnUse" x="1" y="0" width="32" height="32">
<rect x="1" width="32" height="32" fill="white"/>
</mask>
<g mask="url(#mask0_1_1560)">
<path d="M16.0439 4.6044C16.3512 3.98182 16.5048 3.67052 16.7134 3.57106C16.8949 3.48453 17.1058 3.48453 17.2873 3.57106C17.4959 3.67052 17.6495 3.98182 17.9568 4.6044L20.8724 10.511C20.9631 10.6948 21.0085 10.7867 21.0748 10.8581C21.1335 10.9213 21.2039 10.9724 21.2821 11.0088C21.3704 11.0499 21.4718 11.0647 21.6746 11.0943L28.1963 12.0476C28.8831 12.148 29.2265 12.1982 29.3854 12.3659C29.5236 12.5118 29.5887 12.7124 29.5623 12.9117C29.5321 13.1408 29.2835 13.3829 28.7863 13.8672L24.0689 18.4619C23.9219 18.6051 23.8483 18.6767 23.8009 18.7619C23.7589 18.8374 23.7319 18.9203 23.7215 19.006C23.7098 19.1028 23.7272 19.204 23.7619 19.4063L24.8749 25.8961C24.9923 26.5806 25.051 26.9229 24.9407 27.126C24.8447 27.3027 24.6741 27.4266 24.4764 27.4633C24.2492 27.5054 23.9418 27.3438 23.3271 27.0205L17.4968 23.9544C17.3152 23.8589 17.2243 23.8111 17.1286 23.7924C17.0439 23.7757 16.9568 23.7757 16.872 23.7924C16.7764 23.8111 16.6855 23.8589 16.5039 23.9544L10.6736 27.0205C10.0589 27.3438 9.75154 27.5054 9.52429 27.4633C9.32657 27.4266 9.15596 27.3027 9.05998 27.126C8.94966 26.9229 9.00836 26.5806 9.12576 25.8961L10.2388 19.4063C10.2735 19.204 10.2909 19.1028 10.2792 19.006C10.2688 18.9203 10.2418 18.8374 10.1998 18.7619C10.1524 18.6767 10.0788 18.6051 9.93177 18.4619L5.2144 13.8672C4.71721 13.3829 4.46861 13.1408 4.43836 12.9117C4.41204 12.7124 4.47706 12.5118 4.61533 12.3659C4.77424 12.1982 5.11762 12.148 5.80438 12.0476L12.3261 11.0943C12.5289 11.0647 12.6303 11.0499 12.7186 11.0088C12.7968 10.9724 12.8672 10.9213 12.9259 10.8581C12.9922 10.7867 13.0376 10.6948 13.1283 10.511L16.0439 4.6044Z" fill="#F9A000"/>
</g>
</g>
<defs>
<filter id="filter0_d_1_1560" x="0.432617" y="3.50616" width="33.1355" height="31.9637" filterUnits="userSpaceOnUse" color-interpolation-filters="sRGB">
<feFlood flood-opacity="0" result="BackgroundImageFix"/>
<feColorMatrix in="SourceAlpha" type="matrix" values="0 0 0 0 0 0 0 0 0 0 0 0 0 0 0 0 0 0 127 0" result="hardAlpha"/>
<feOffset dy="4"/>
<feGaussianBlur stdDeviation="2"/>
<feComposite in2="hardAlpha" operator="out"/>
<feColorMatrix type="matrix" values="0 0 0 0 0 0 0 0 0 0 0 0 0 0 0 0 0 0 0.25 0"/>
<feBlend mode="normal" in2="BackgroundImageFix" result="effect1_dropShadow_1_1560"/>
<feBlend mode="normal" in="SourceGraphic" in2="effect1_dropShadow_1_1560" result="shape"/>
</filter>
</defs>
</svg>
