<svg width="16" height="12" viewBox="0 0 16 12" fill="none" xmlns="http://www.w3.org/2000/svg">
<path d="M8.32654 2.60728C10.5424 2.60738 12.6736 3.45882 14.2795 4.98562C14.4005 5.10349 14.5938 5.102 14.7129 4.98228L15.8689 3.81562C15.9292 3.75489 15.9628 3.67264 15.9623 3.58706C15.9618 3.50148 15.9272 3.41963 15.8662 3.35962C11.6511 -0.679932 5.00132 -0.679932 0.786223 3.35962C0.725164 3.41958 0.690503 3.50141 0.68994 3.58699C0.689377 3.67257 0.722938 3.75485 0.783202 3.81562L1.93954 4.98228C2.05857 5.10218 2.25203 5.10367 2.37289 4.98562C3.97904 3.45872 6.11043 2.60728 8.32654 2.60728ZM8.32654 6.40295C9.54403 6.40288 10.7181 6.85541 11.6205 7.67262C11.7426 7.7886 11.9349 7.78608 12.0539 7.66695L13.2086 6.50028C13.2694 6.43909 13.3031 6.35607 13.3022 6.26981C13.3013 6.18354 13.2659 6.10123 13.2039 6.04128C10.4557 3.4849 6.19974 3.4849 3.45154 6.04128C3.38946 6.10123 3.35405 6.18358 3.35324 6.26988C3.35242 6.35617 3.38627 6.43918 3.4472 6.50028L4.60156 7.66695C4.72055 7.78608 4.91282 7.7886 5.03488 7.67262C5.93675 6.85595 7.10985 6.40345 8.32654 6.40295ZM10.5456 9.18728C10.6073 9.12668 10.6413 9.04328 10.6396 8.95677C10.6378 8.87026 10.6004 8.78832 10.5362 8.73028C9.26065 7.6514 7.39245 7.6514 6.11688 8.73028C6.05266 8.78827 6.01523 8.87019 6.0134 8.9567C6.01157 9.0432 6.0455 9.12663 6.10721 9.18728L8.10489 11.203C8.16344 11.2622 8.24325 11.2955 8.32654 11.2955C8.40983 11.2955 8.48967 11.2622 8.54822 11.203L10.5456 9.18728Z" fill="#1E293B"/>
</svg>
