<svg width="40" height="40" viewBox="0 0 40 40" fill="none" xmlns="http://www.w3.org/2000/svg">
<mask id="mask0_1_4256" style="mask-type:alpha" maskUnits="userSpaceOnUse" x="0" y="0" width="40" height="40">
<rect width="40" height="40" fill="white"/>
</mask>
<g mask="url(#mask0_1_4256)">
<path fill-rule="evenodd" clip-rule="evenodd" d="M10.1746 2.36328L10.1953 4.72656L14.7852 4.74672L19.375 4.76687V7.61781V10.4688H17.853H16.3311L16.2759 10.6836C16.2455 10.8017 16.0233 11.7346 15.7821 12.7566L15.3436 14.6148L14.4097 15.0676C13.3853 15.5641 12.4219 16.1429 12.4219 16.2617C12.4219 16.3684 12.9941 17.1809 13.0719 17.1845C13.1071 17.1862 13.2829 17.0871 13.4625 16.9645C14.4384 16.2979 15.8973 15.6678 17.1897 15.3547C17.6397 15.2456 18.0369 15.1564 18.0724 15.1563C18.108 15.1563 17.9804 15.3409 17.7888 15.5664C16.5798 16.9902 15.4915 19.49 14.9998 21.9727L14.9108 22.4219H11.9476C10.3178 22.4219 8.98438 22.4036 8.98438 22.3813C8.98438 22.1838 9.96328 20.4599 10.4229 19.8481C10.5341 19.7001 10.625 19.559 10.625 19.5346C10.625 19.5102 10.4302 19.338 10.1922 19.1521C9.67133 18.7453 9.69547 18.7333 9.04133 19.7266C7.09625 22.6803 6.42953 26.3854 7.22086 29.8438C8.37203 34.8748 12.3024 38.6441 17.5781 39.7766C18.2834 39.928 18.6341 39.953 20.0781 39.9544C21.538 39.9558 21.8652 39.9327 22.5781 39.778C23.6742 39.5402 24.6329 39.2141 25.6228 38.7423C26.5013 38.3237 27.9688 37.3901 27.9688 37.2499C27.9688 37.1813 27.6762 36.7763 27.3422 36.3829C27.313 36.3485 27.0114 36.5112 26.672 36.7445C25.5755 37.4976 24.2202 38.1039 22.91 38.4275C21.7664 38.71 21.818 38.7615 22.4302 37.9495C23.4518 36.5942 24.4567 34.2512 24.9266 32.1289L25.104 31.3281H28.0651H31.0262L30.9716 31.5039C30.7166 32.3243 29.6448 33.9862 28.7635 34.9278L28.1364 35.5978L28.5437 36.0533L28.9511 36.5088L29.5562 35.852C31.2977 33.9617 32.484 31.5643 32.9348 29.0234C33.1029 28.0766 33.126 25.9648 32.9785 25.0391C32.5311 22.2315 31.3552 19.8422 29.438 17.8452C28.2795 16.6384 27.2398 15.8862 25.6579 15.1101L24.6361 14.6088L24.5438 14.1989C24.4931 13.9735 24.2725 13.042 24.0536 12.1289L23.6556 10.4688H22.1403H20.625V7.61781V4.76687L25.2148 4.74672L29.8047 4.72656L29.8254 2.36328L29.846 0H20H10.154L10.1746 2.36328ZM28.5938 2.34375V3.51562H20H11.4062V2.34375V1.17188H20H28.5938V2.34375ZM35.8398 4.04906L31.7969 5.19477V8.33953C31.7969 10.0692 31.7836 11.4844 31.7673 11.4844C31.7511 11.4844 31.6063 11.4295 31.4457 11.3623C30.9949 11.174 30.2323 11.2037 29.7407 11.4288C28.8154 11.8524 28.323 12.592 28.327 13.5519C28.3309 14.4855 28.7963 15.2382 29.6484 15.6888C29.9767 15.8624 30.1389 15.8954 30.6641 15.8954C31.1892 15.8954 31.3514 15.8624 31.6797 15.6888C32.1809 15.4237 32.6012 14.9859 32.8282 14.4922C32.9999 14.1187 33.0089 14.0043 33.0328 11.8945C33.0465 10.6807 33.0709 9.6875 33.0868 9.6875C33.1028 9.6875 34.3628 9.33594 35.8869 8.90625C37.4109 8.47656 38.6961 8.125 38.743 8.125C38.8016 8.125 38.8281 8.62266 38.8281 9.72656C38.8281 10.6074 38.815 11.3281 38.7989 11.3281C38.7828 11.3281 38.6202 11.2754 38.4375 11.2109C37.9994 11.0563 37.308 11.0623 36.8303 11.2247C36.3067 11.4027 35.6215 12.088 35.4434 12.6116C34.9326 14.1137 35.9379 15.6537 37.5 15.7616C38.4257 15.8256 39.2648 15.3583 39.7291 14.5202L39.9609 14.1016L39.9825 8.49609C39.9943 5.41305 39.9767 2.89352 39.9434 2.89703C39.9101 2.90055 38.0634 3.41891 35.8398 4.04906ZM3.51562 7.53609C3.51562 9.53578 3.5025 11.1719 3.48641 11.1719C3.47031 11.1719 3.30766 11.1191 3.125 11.0547C2.68688 10.9001 1.99547 10.906 1.51781 11.0684C0.937266 11.2659 0.285234 11.9495 0.113281 12.5411C-0.217187 13.6776 0.236172 14.7863 1.26414 15.3558C1.63344 15.5603 1.75359 15.5858 2.34375 15.5848C2.91016 15.5839 3.06523 15.5534 3.39844 15.377C3.90414 15.1093 4.23891 14.753 4.48672 14.2188L4.68594 13.7891L4.68672 9.81719L4.6875 5.84531L4.99953 6.24008C5.68953 7.11305 6.74773 7.68313 7.98828 7.85023L8.35938 7.90023V7.27039V6.64062H8.13922C7.82445 6.64062 7.1232 6.42016 6.75781 6.20633C6.30141 5.9393 5.93273 5.52422 5.40867 4.6875L4.94375 3.94531L4.22969 3.92281L3.51562 3.90039V7.53609ZM38.7717 6.80258C38.7383 6.83391 37.498 7.19836 36.0156 7.61258C34.5332 8.02672 33.2588 8.38422 33.1836 8.40688C33.0577 8.44477 33.0469 8.3557 33.0469 7.27391V6.09977L33.3398 6.01945C33.501 5.97531 34.793 5.61164 36.2109 5.21141L38.7891 4.48367L38.8108 5.61469C38.8227 6.23672 38.8051 6.77125 38.7717 6.80258ZM23.0028 12.9348C23.1646 13.6037 23.2847 14.1619 23.2696 14.1752C23.2545 14.1886 22.9258 14.1281 22.5391 14.0409C21.9423 13.9063 21.5582 13.8821 20 13.8808C18.426 13.8795 18.0637 13.902 17.4609 14.0394C17.0742 14.1274 16.7447 14.1878 16.7287 14.1735C16.7046 14.152 17.107 12.3198 17.2377 11.8555C17.2734 11.7286 17.4723 11.7188 19.9924 11.7188H22.7087L23.0028 12.9348ZM2.86125 12.2703C3.20516 12.4368 3.51562 12.9072 3.51562 13.2618C3.51562 13.7329 3.10805 14.2534 2.64047 14.3792C1.53336 14.6773 0.718047 13.2689 1.54172 12.4812C1.95672 12.0844 2.34797 12.0219 2.86125 12.2703ZM38.2697 12.4796C38.6383 12.7548 38.7801 13.0209 38.7801 13.4375C38.7801 14.8249 36.7349 14.9511 36.512 13.5774C36.363 12.6594 37.5323 11.9291 38.2697 12.4796ZM31.1703 12.5588C31.5366 12.7427 31.7969 13.1482 31.7969 13.5349C31.7969 14.222 31.3405 14.6875 30.6669 14.6875C30.0139 14.6875 29.6022 14.3011 29.5491 13.6383C29.5234 13.3178 29.5525 13.19 29.7016 12.9688C29.913 12.6552 30.3233 12.4221 30.6641 12.4221C30.793 12.4221 31.0208 12.4836 31.1703 12.5588ZM20.7191 15.7227C21.9207 16.8986 22.8541 18.6612 23.5014 20.9766C23.6335 21.4492 23.765 21.9678 23.7936 22.1289L23.8455 22.4219H20.0087C16.991 22.4219 16.172 22.401 16.1725 22.3242C16.1728 22.2705 16.28 21.8074 16.4106 21.2951C16.9495 19.1824 17.8084 17.3905 18.8993 16.1027C19.2795 15.6541 19.8806 15.1562 20.0423 15.1562C20.0962 15.1562 20.4007 15.4111 20.7191 15.7227ZM22.7925 15.3503C25.0508 15.8975 26.9084 16.9726 28.5622 18.6895C29.5614 19.727 30.5439 21.1914 30.9405 22.2343L31.0117 22.4219H28.0559H25.1001L24.8834 21.5039C24.3221 19.1255 23.3768 17.0042 22.2723 15.6445C22.0541 15.376 21.9019 15.1563 21.9339 15.1563C21.9659 15.1564 22.3523 15.2437 22.7925 15.3503ZM10.9151 17.4831L10.5469 17.857L10.9762 18.2809L11.4056 18.705L11.7575 18.3597C11.951 18.1698 12.1094 17.985 12.1094 17.9491C12.1094 17.8707 11.4065 17.1094 11.3341 17.1094C11.3061 17.1094 11.1175 17.2776 10.9151 17.4831ZM2.5957 19.9431L2.18891 20.355L3.30336 21.4674L4.41773 22.5798L4.84375 22.1484L5.26969 21.7171L4.17891 20.6242C3.57891 20.023 3.06875 19.5312 3.04523 19.5312C3.02172 19.5312 2.81945 19.7166 2.5957 19.9431ZM35.8203 20.625L34.7284 21.719L35.1581 22.1487L35.5878 22.5784L36.6797 21.4844L37.7716 20.3904L37.3419 19.9607L36.9122 19.531L35.8203 20.625ZM14.633 24.3555C14.5526 25.2321 14.5518 28.493 14.6317 29.4336L14.6931 30.1562H11.6151H8.53711L8.36125 29.3555C8.03781 27.882 8.0575 25.7588 8.40922 24.1992L8.52813 23.6719H11.6119H14.6956L14.633 24.3555ZM24.0916 23.9258C24.1171 24.0655 24.1747 24.6699 24.2195 25.2691C24.2644 25.8682 24.3105 26.3677 24.3219 26.3791C24.3333 26.3905 24.601 26.3782 24.9169 26.3517L25.4912 26.3036L25.4396 25.4004C25.4112 24.9037 25.3662 24.3116 25.3395 24.0845L25.291 23.6719H28.3734H31.4558L31.5878 24.2383C31.8293 25.2745 31.8973 26.0887 31.8502 27.3828C31.8252 28.0703 31.7709 28.7734 31.7295 28.9453C31.6881 29.1172 31.6135 29.4599 31.5637 29.707L31.4733 30.1562H28.3818H25.2902L25.3423 29.668C25.371 29.3995 25.4162 28.8072 25.4428 28.3519L25.4912 27.5241L25.2359 27.473C24.8719 27.4002 24.2969 27.4098 24.2969 27.4887C24.2969 27.6952 24.1332 29.6163 24.0946 29.8633L24.0487 30.1562H20.0029H15.957L15.9105 29.9237C15.885 29.7959 15.822 29.0577 15.7707 28.2831C15.6979 27.1849 15.6983 26.5698 15.7723 25.4883C15.8245 24.7256 15.8872 24.0048 15.9115 23.8867L15.9557 23.6719H20.0004H24.0451L24.0916 23.9258ZM0 26.9141V27.5H1.5625H3.125V26.9141V26.3281H1.5625H0V26.9141ZM18.2031 26.9141V27.5H18.8281H19.4531V26.9141V26.3281H18.8281H18.2031V26.9141ZM20.5469 26.9141V27.5H21.1719H21.7969V26.9141V26.3281H21.1719H20.5469V26.9141ZM36.875 26.9141V27.5H38.4375H40V26.9141V26.3281H38.4375H36.875V26.9141ZM3.31953 32.3445L2.22852 33.4376L2.63797 33.8471L3.0475 34.2566L4.14211 33.1619L5.23672 32.0673L4.82367 31.6594L4.41055 31.2514L3.31953 32.3445ZM35.1566 31.6793L34.7303 32.111L35.8213 33.2041L36.9122 34.2971L37.3422 33.867L37.7723 33.437L36.6776 32.3423L35.5829 31.2477L35.1566 31.6793ZM15.181 32.5571C15.7573 34.9296 16.6685 36.9084 17.8213 38.2905L18.1222 38.6512L17.7751 38.5863C14.5476 37.9834 11.5836 35.9285 9.84109 33.0859C9.53922 32.5935 8.98438 31.4837 8.98438 31.3723C8.98438 31.348 10.3116 31.3284 11.9336 31.3287L14.8828 31.3293L15.181 32.5571ZM23.8281 31.4507C23.8281 31.5181 23.7412 31.9163 23.6348 32.3357C23.1928 34.0796 22.4902 35.7497 21.7177 36.8932C21.3281 37.4699 20.1673 38.6719 20 38.6719C19.8245 38.6719 18.6355 37.4303 18.2358 36.8296C17.7254 36.0626 17.142 34.8412 16.8047 33.8334C16.5423 33.0497 16.1719 31.6548 16.1719 31.4507C16.1719 31.341 16.5747 31.3281 20 31.3281C23.4253 31.3281 23.8281 31.341 23.8281 31.4507Z" fill="#1E293B"/>
</g>
</svg>
