<svg width="40" height="40" viewBox="0 0 40 40" fill="none" xmlns="http://www.w3.org/2000/svg">
<mask id="mask0_1_4232" style="mask-type:alpha" maskUnits="userSpaceOnUse" x="0" y="0" width="40" height="40">
<rect width="40" height="40" fill="white"/>
</mask>
<g mask="url(#mask0_1_4232)">
<path fill-rule="evenodd" clip-rule="evenodd" d="M17.0189 0.110667C16.5639 0.253023 16.2061 0.488669 15.8366 0.889486C15.4553 1.30327 15.2597 1.67284 15.0778 2.32368C14.8427 3.16477 14.1927 3.7299 13.3126 3.8585C13.024 3.90069 12.8098 3.86389 12.2371 3.67364C11.8439 3.54293 11.4036 3.43604 11.2587 3.43604C10.4614 3.43604 9.51403 4.08415 9.1815 4.85726C9.00032 5.27832 8.9975 5.45771 9.15166 6.74024C9.2251 7.35139 9.13548 7.57805 8.35721 8.74918C7.94897 9.36353 7.59253 9.95514 7.56527 10.064C7.49948 10.326 7.68309 10.6412 7.95757 10.7378C8.25884 10.8437 8.53512 10.6757 8.82882 10.2077C8.95773 10.0023 9.29909 9.49791 9.58748 9.08686C10.3609 7.98418 10.5551 7.22584 10.3206 6.22387C10.1494 5.49256 10.2501 5.14104 10.7192 4.83171C11.0146 4.63693 11.3325 4.64904 12.0248 4.88148C13.9521 5.52842 15.761 4.49207 16.3236 2.41876C16.5247 1.67768 17.1111 1.21709 17.8531 1.21756C18.4158 1.21788 18.8649 1.45251 19.1805 1.9113C19.5769 2.48744 20.0358 2.48744 20.4322 1.9113C21.2799 0.679233 23.0357 1.12482 23.3614 2.65472C23.5183 3.39104 24.1861 4.25916 24.8909 4.64279C25.7651 5.11862 26.6486 5.19675 27.5879 4.88148C27.9079 4.77405 28.2792 4.68615 28.4128 4.68615C28.777 4.68615 29.147 4.95305 29.2947 5.32231C29.4139 5.61999 29.4137 5.68468 29.2928 6.22786C29.0688 7.23474 29.2557 8.0177 29.9469 8.96794C31.634 11.2874 32.7277 14.0364 33.2172 17.1873C33.4134 18.4508 33.4139 21.5439 33.218 22.8128C32.7365 25.932 31.6232 28.7272 29.9413 31.0398C29.256 31.982 29.0695 32.768 29.2928 33.7722C29.4137 34.3154 29.4139 34.3801 29.2947 34.6777C29.147 35.047 28.777 35.3139 28.4128 35.3139C28.2792 35.3139 27.9079 35.226 27.5879 35.1186C25.6576 34.4706 23.8524 35.5073 23.2871 37.5884C23.0777 38.3591 22.2532 38.9252 21.536 38.7906C21.0725 38.7037 20.6864 38.4581 20.4322 38.0888C20.0358 37.5126 19.5769 37.5126 19.1805 38.0888C18.3328 39.3208 16.577 38.8752 16.2513 37.3453C16.0945 36.609 15.4266 35.7409 14.7218 35.3573C13.8476 34.8814 12.9641 34.8033 12.0248 35.1186C11.7048 35.226 11.3336 35.3139 11.1999 35.3139C10.8357 35.3139 10.4658 35.047 10.318 34.6777C10.1989 34.3801 10.199 34.3154 10.3199 33.7722C10.5439 32.7653 10.357 31.9823 9.66584 31.0321C7.97999 28.7142 6.87708 25.9429 6.39469 22.8128C6.21936 21.6747 6.19647 18.5247 6.35578 17.4607C6.55838 16.1081 6.85161 14.8733 7.23703 13.7495C7.71551 12.3543 7.72544 12.3151 7.66293 12.0662C7.59456 11.7937 7.2057 11.6283 6.89146 11.7378C6.6201 11.8324 6.45251 12.1734 6.02177 13.5072C4.61992 17.8479 4.66157 22.5306 6.14045 26.8555C6.58893 28.1672 7.48104 29.9385 8.3501 31.243C9.13533 32.4216 9.22526 32.6478 9.15166 33.2598C8.99782 34.5394 9.00055 34.7223 9.17963 35.1384C9.37801 35.5996 9.95353 36.1806 10.3943 36.3648C10.9788 36.609 11.4188 36.6009 12.2272 36.3309C12.8073 36.1373 13.0423 36.0942 13.3045 36.1335C13.8041 36.2084 14.1517 36.3777 14.5385 36.7342C14.8309 37.0037 14.9162 37.1545 15.0802 37.6925C15.5116 39.1067 16.3786 39.8852 17.6295 39.9816C18.2957 40.0329 18.8548 39.897 19.3512 39.5629C19.5672 39.4175 19.7721 39.2986 19.8064 39.2986C19.8407 39.2986 20.0455 39.4175 20.2615 39.5629C21.3244 40.2782 22.8508 40.0978 23.7352 39.1524C24.1434 38.7158 24.3697 38.3067 24.5019 37.766C24.6331 37.2296 24.7508 37.0235 25.1125 36.6967C25.472 36.3719 25.8239 36.2062 26.3082 36.1335C26.5704 36.0942 26.8054 36.1373 27.3855 36.3309C28.1929 36.6006 28.634 36.609 29.2156 36.366C29.6003 36.2053 30.1712 35.6706 30.3768 35.2783C30.5585 34.9316 30.5974 34.1787 30.4764 33.3487C30.441 33.1059 30.4348 32.7859 30.4626 32.6375C30.4904 32.4892 30.8505 31.8616 31.2626 31.243C32.119 29.9575 33.0097 28.1894 33.4671 26.8668C34.9889 22.4662 34.9889 17.5339 33.4671 13.1332C33.0097 11.8107 32.119 10.0426 31.2626 8.75707C30.8505 8.13842 30.4904 7.51086 30.4626 7.36257C30.4348 7.21419 30.441 6.89417 30.4764 6.65133C30.5982 5.81594 30.5587 5.06869 30.374 4.71639C30.1274 4.24557 29.4782 3.69482 29.0041 3.55402C28.4464 3.38838 28.1625 3.40549 27.4764 3.64622C26.474 3.99781 25.7678 3.89546 25.1125 3.30337C24.7508 2.97655 24.6331 2.77044 24.5019 2.23406C24.2952 1.38867 23.6903 0.620869 22.9415 0.25357C22.5549 0.0639438 22.4124 0.038004 21.7597 0.0384728C21.1509 0.0389416 20.9447 0.0717571 20.6128 0.221224C20.3902 0.321389 20.1475 0.470386 20.0733 0.552347C19.89 0.754865 19.7814 0.740958 19.4023 0.466245C18.7958 0.0269093 17.7742 -0.125448 17.0189 0.110667ZM18.5953 5.08205C13.0263 5.84141 8.69177 10.9913 7.84756 17.8514C7.72395 18.8557 7.72395 21.1443 7.84756 22.1487C8.65771 28.7319 12.6966 33.7759 17.9929 34.819C18.831 34.984 20.6179 35.0024 21.4471 34.8545C22.7749 34.6176 24.2332 34.0352 25.3928 33.2787C26.0448 32.8534 27.0247 32.0653 27.4203 31.6482C27.8558 31.1891 27.647 30.5478 27.062 30.5478C26.8921 30.5478 26.708 30.6654 26.3364 31.011C24.3695 32.8409 22.1864 33.7513 19.7657 33.7513C17.3003 33.7513 15.0775 32.7706 13.1244 30.8213C10.5743 28.2762 9.1129 24.6894 8.97008 20.6251C8.87124 17.8137 9.38058 15.2622 10.5108 12.9067C12.2463 9.28946 14.9971 6.98089 18.3145 6.35748C19.3233 6.16785 20.999 6.23989 22.0331 6.51718C23.6733 6.95706 25.1406 7.83362 26.4884 9.17874C27.5774 10.2656 28.2489 11.2125 28.9819 12.6947C30.0684 14.8918 30.5487 16.8247 30.6418 19.375C30.763 22.6961 29.9264 25.9853 28.297 28.5925C28.0963 28.9137 27.9321 29.2581 27.9321 29.3579C27.9321 29.6114 28.2666 29.9228 28.5389 29.9228C28.8374 29.9228 29.013 29.7436 29.4925 28.9497C30.31 27.5963 31.0832 25.6403 31.4397 24.0238C31.9825 21.5616 32.0113 18.7556 31.5183 16.3278C30.3553 10.5993 26.5028 6.18395 21.8378 5.23292C20.8976 5.04119 19.4043 4.97173 18.5953 5.08205ZM22.3657 24.5127C16.7375 30.141 16.4467 30.4455 16.4467 30.7106C16.4467 31.0543 16.7091 31.3292 17.0371 31.3292C17.236 31.3292 18.045 30.5501 23.2241 25.3711C28.6663 19.9289 29.1822 19.391 29.1822 19.1596C29.1822 18.8134 28.9473 18.5936 28.5772 18.5936C28.2941 18.5936 28.097 18.7814 22.3657 24.5127ZM23.6564 27.3628C20.508 30.5083 20.197 30.8419 20.197 31.0741C20.197 31.4215 20.4312 31.6417 20.8007 31.6417C21.0802 31.6417 21.2277 31.5057 24.5119 28.2215C27.6261 25.1074 27.9321 24.7785 27.9321 24.5458C27.9321 24.3785 27.8658 24.2238 27.7403 24.0984C27.3241 23.6822 27.4052 23.6175 23.6564 27.3628Z" fill="#1E293B"/>
</g>
</svg>
